<svg width="137" height="170" viewBox="0 0 137 170" fill="none" xmlns="http://www.w3.org/2000/svg">
<g clip-path="url(#clip0_182_7133)">
<path d="M64.9598 39.0863C75.0817 39.0863 83.2871 33.2494 83.2871 26.0493C83.2871 18.8491 75.0817 13.0122 64.9598 13.0122C54.8379 13.0122 46.6324 18.8491 46.6324 26.0493C46.6324 33.2494 54.8379 39.0863 64.9598 39.0863Z" fill="white"/>
<path d="M108.248 51.4806C117.148 51.4806 124.363 46.3306 124.363 39.9778C124.363 33.625 117.148 28.475 108.248 28.475C99.3483 28.475 92.1335 33.625 92.1335 39.9778C92.1335 46.3306 99.3483 51.4806 108.248 51.4806Z" fill="white"/>
<path d="M136.153 133.957C135.647 132.655 135.084 131.357 134.537 130.105C134.462 129.931 134.387 129.761 134.311 129.587C134.374 129.562 134.433 129.533 134.495 129.504C135.497 129.031 136.186 128.26 136.436 127.339C136.679 126.46 136.491 125.506 135.915 124.661C135.368 123.86 134.595 123.159 133.794 122.737C133.034 122.334 132.249 121.998 131.493 121.675C130.692 121.331 129.936 121.003 129.218 120.618C127.223 119.535 125.24 118.295 123.536 117.217C119.04 114.373 113.83 110.873 109.284 106.49C108.95 106.171 108.611 105.926 108.248 105.756C109.162 105.603 110.043 105.325 110.832 104.947C111.763 104.504 112.365 103.898 112.619 103.156C112.878 102.41 112.774 101.568 112.31 100.647C112.21 100.448 112.102 100.253 111.989 100.067C112.026 100.067 112.064 100.067 112.093 100.067C112.394 100.067 112.686 100.013 112.936 99.9092C114.327 99.337 115.145 98.5865 115.437 97.612C115.704 96.708 115.479 95.7294 114.765 94.7011C114.114 93.7639 113.417 92.8475 112.74 91.9643C112.473 91.6159 112.21 91.2718 111.947 90.9193C110.766 89.3477 109.843 88.0208 109.659 86.4409L109.647 86.329C109.259 83.0407 108.862 79.6404 108.72 76.3065C108.611 73.7481 108.695 71.1149 108.774 68.5689C108.795 67.9303 108.816 67.2917 108.833 66.6532C108.862 65.5253 108.945 64.3642 109.025 63.2446C109.071 62.6019 109.117 61.955 109.154 61.3081V61.2335C109.183 60.8727 109.221 60.2715 108.845 59.7614C108.169 58.8409 107.459 57.9328 106.775 57.0495L105.501 55.4075L103.668 56.357V57.3522C103.668 57.5347 103.673 57.7171 103.668 57.9037C103.652 58.5382 103.648 59.1726 103.643 59.807C103.635 61.221 103.631 62.5563 103.46 63.8749C102.996 67.4991 101.414 70.7708 98.7589 73.6029C95.6069 76.9659 91.4196 78.7614 85.5707 79.2548C84.5897 79.3377 83.6086 79.3792 82.6567 79.3792C80.1936 79.3792 77.7847 79.0972 75.5053 78.5374C67.9406 76.6839 62.6678 74.1917 58.4012 70.4515C56.3931 68.6892 54.3642 66.7029 53.1076 64.0905C51.4961 60.7359 50.9951 57.0329 51.5671 52.766C52.1223 48.6194 53.8006 45.1818 56.6937 42.2502C57.1488 41.7899 57.6038 41.3337 58.063 40.8776L58.6392 40.3012L59.1986 39.7207L58.4221 37.9584L57.5454 38.0662C57.0736 38.1242 56.6018 38.1823 56.1301 38.2362C54.8735 38.3813 53.5751 38.5348 52.2935 38.7628C51.3708 38.9245 50.5985 39.6087 50.2144 40.1437C47.9642 43.2827 45.9269 46.1978 43.9815 49.0589L43.1173 50.3278C39.8234 55.1794 36.4209 60.1968 32.3505 64.5425C32.3087 64.5881 32.2712 64.6337 32.2336 64.6835C31.6241 63.3773 31.0438 62.0628 30.4677 60.7608C30.2255 60.2134 29.9834 59.6661 29.7412 59.1187C28.5013 56.3405 27.5996 53.9769 27.2238 51.4681C26.9567 49.6768 26.3304 48.0886 25.3702 46.7493C24.4643 45.4887 23.2411 44.7962 21.9177 44.7962C20.9742 44.7962 20.0223 45.1528 19.1498 45.8329C17.4465 44.2198 15.0334 42.4824 11.9608 42.4824C10.9129 42.4824 9.83165 42.6897 8.75038 43.0919C4.12889 44.8294 2.85558 48.9345 2.37965 52.1482C0.885073 52.878 0.175359 54.1137 0.267204 55.8346C0.363224 57.6798 0.467594 59.5873 0.805752 61.474C1.93712 67.7396 4.32928 73.7315 8.11581 79.7939C11.0924 84.5625 14.1943 88.6594 17.5926 92.3292C21.3833 96.4219 24.7732 99.5734 28.2634 102.248C29.0858 102.878 29.9583 103.434 30.7975 103.969L31.1064 104.168C31.0062 104.417 30.9144 104.682 30.8434 104.964C30.6388 105.781 30.4259 106.594 30.2088 107.411C29.6327 109.596 29.0399 111.852 28.6474 114.132C28.0546 117.566 27.6497 121.09 27.4451 124.607C27.3115 126.92 27.6163 129.28 27.9127 131.312C28.7602 137.101 30.9895 142.118 34.5381 146.215C35.3188 147.115 35.636 147.691 35.4565 148.728C35.2269 150.042 35.2812 151.365 35.3271 152.646C35.348 153.169 35.3689 153.708 35.3689 154.23V155.404H36.5044C36.5629 155.408 36.638 155.416 36.7173 155.416C36.8634 155.416 37.0054 155.4 37.1348 155.366C37.9572 155.163 38.7964 155.068 39.6898 155.068C40.7669 155.068 41.9233 155.213 43.2258 155.512C45.8017 156.1 48.0811 157.332 50.707 159.003C51.8969 159.762 53.2077 160.467 54.5938 161.11C55.0864 161.338 55.5665 161.454 56.0216 161.454C56.6853 161.454 57.5537 161.217 58.23 160.201C59.186 161.512 60.3675 162.685 62.3631 162.685H62.3756C62.8599 162.685 63.5905 162.685 64.104 162.142C64.6258 161.595 64.5841 160.865 64.559 160.38C64.5214 159.667 64.4713 158.953 64.4212 158.24C64.3586 157.34 64.2918 156.407 64.2542 155.499C64.2459 155.288 64.2083 155.055 64.1123 154.832C64.7636 154.856 65.4148 154.869 66.0578 154.869C67.139 154.869 68.212 154.832 69.2765 154.757L69.6898 156.254C70.1198 157.825 70.5665 159.447 71.0425 161.039C71.343 162.038 72.608 162.067 72.7541 162.067C73.2676 162.067 73.5849 161.848 73.7602 161.665C74.2612 161.134 74.7079 160.57 75.1463 160.002C75.9604 160.799 76.9874 161.222 78.1396 161.222C78.3275 161.222 78.5237 161.209 78.7157 161.188C79.9556 161.039 81.5295 160.355 82.1975 157.995C82.6943 158.617 83.3247 159.161 84.2724 159.161C84.9487 159.161 85.5958 158.866 86.197 158.543C86.5142 158.373 86.8232 158.17 87.1154 157.937C89.8207 155.785 92.455 154.21 95.1686 153.119C95.5986 152.945 96.0453 152.8 96.5212 152.642C96.7508 152.567 96.9763 152.493 97.2059 152.414L98.4917 151.975L97.3061 149.661C96.8802 148.831 96.4628 148.027 96.0662 147.214C96.0411 147.164 96.0119 147.106 95.9827 147.044C96.0202 147.015 96.1747 146.899 96.1747 146.899C100.967 143.287 103.564 138.427 103.898 132.444C105.459 134.148 106.887 135.67 108.54 137.03C113.049 140.733 117.124 142.947 121.374 143.996C123.524 144.527 125.306 144.776 126.981 144.776C128.655 144.776 130.057 144.548 131.485 144.079C133.372 143.461 135.948 142.271 136.507 139.103C136.841 137.212 136.712 135.483 136.123 133.966L136.153 133.957ZM20.6068 63.8998C19.4462 65.5294 18.5653 67.3622 17.9892 69.3485C17.9808 69.3734 17.9767 69.3941 17.9683 69.4148C17.9391 69.3941 17.9099 69.3692 17.8765 69.3443C16.0938 67.9718 14.1317 67.1051 12.2739 66.3753C10.3577 65.6206 9.07602 64.8535 8.61679 63.3649C7.54804 59.8983 9.25136 58.9321 10.629 58.505C11.0131 58.3847 11.5016 58.3267 12.0777 58.3267C12.157 58.3267 12.2405 58.3267 12.3198 58.3267C12.6663 58.335 13.0629 58.4179 13.4846 58.5091C13.71 58.5548 13.9355 58.6045 14.1693 58.646L15.2756 58.8409L15.5261 57.7503C15.8058 56.5312 16.5739 55.9382 17.9308 55.8843C18.0059 55.8843 18.081 55.8802 18.152 55.8802C20.0515 55.8802 21.5044 56.892 21.6839 58.3474C21.9761 60.6944 21.6296 62.4568 20.6026 63.8998H20.6068ZM41.2177 78.8816C41.2177 78.8816 41.201 78.8567 41.1927 78.8443C41.2094 78.8318 41.2261 78.8236 41.2428 78.8111C41.2344 78.8318 41.2261 78.8567 41.2177 78.8816ZM125.135 131.27C124.939 132.008 124.484 132.423 123.703 132.572C123.453 132.622 123.232 132.697 123.09 132.747L123.023 132.767L122.184 133.02V133.891C122.184 134.268 122.192 134.633 122.2 134.986C122.217 135.716 122.234 136.342 122.167 136.947C122.092 137.586 121.712 138.033 121.119 138.179C120.652 138.295 120.125 138.353 119.604 138.353C119.295 138.353 118.986 138.332 118.689 138.291C118.28 138.233 117.032 138.063 116.456 136.01C116.205 135.118 116.055 134.19 115.896 133.207C115.825 132.767 115.754 132.328 115.675 131.888L115.613 131.54C115.504 130.951 115.395 130.362 115.291 129.773C115.291 129.765 115.291 129.761 115.291 129.753C116.598 129.4 117.637 128.666 118.581 128.003C118.823 127.833 119.061 127.663 119.307 127.497C120.167 126.925 121.082 126.643 122.1 126.643C122.747 126.643 123.44 126.759 124.163 126.987C124.96 127.24 125.457 127.97 125.427 128.845C125.402 129.599 125.348 130.474 125.139 131.262L125.135 131.27Z" fill="white"/>
<path d="M65.1685 154.948C65.252 156.499 65.3981 157.983 65.3814 159.463C65.3731 160.363 65.1143 161.263 64.9723 162.163C64.8846 162.71 64.751 163.258 64.7302 163.809C64.6717 165.435 63.9745 166.712 62.4173 167.197C59.9834 167.952 57.5078 168.598 55.0154 169.125C51.016 169.967 46.9372 170.108 42.8668 169.934C39.2598 169.776 35.682 169.27 32.292 167.972C27.9544 166.31 27.0944 162.308 29.307 158.257C30.3424 156.358 31.8996 154.948 33.8075 153.928C34.4045 153.608 34.6842 153.248 34.6842 152.518C34.6884 151.083 34.8846 149.648 34.9263 148.214C34.9388 147.782 34.8219 147.239 34.5506 146.928C30.6722 142.433 28.4178 137.2 27.4326 131.42C26.8439 127.97 26.9191 124.47 27.1904 120.983C27.6121 115.571 28.781 110.305 30.2464 105.093C30.309 104.865 30.2255 104.442 30.0585 104.33C26.2177 101.738 22.8904 98.5699 19.6424 95.3065C13.6307 89.2648 8.65435 82.4726 4.86781 74.847C2.78041 70.6423 1.29836 66.2261 0.509328 61.6067C0.212917 59.8568 0.112722 58.0655 0.00417759 56.2907C-0.0626191 55.1836 0.179519 54.122 0.989429 53.2637C2.04148 52.1524 2.11662 50.614 2.72614 49.3078C4.26247 46.0236 6.30394 43.2122 10.1322 42.4036C13.4762 41.6987 16.4779 42.5612 19.1039 44.734C19.3836 44.9662 19.5714 45.2192 20.0641 45.0118C22.9948 43.7886 25.4579 44.7382 27.0151 47.5828C27.9878 49.3617 28.4596 51.2899 28.7435 53.2554C29.0315 55.2582 29.4072 57.203 30.3507 59.0317C31.0646 60.4166 31.5948 61.8887 32.2503 63.4188C34.7092 60.9225 36.9928 58.3972 38.7421 55.5982C37.3853 53.7198 36.0368 51.9409 34.7927 50.0956C33.2397 47.7901 32.5383 45.1362 31.9455 42.47C31.3068 39.5963 31.0646 36.6564 31.4571 33.7496C31.9789 29.8849 33.1228 26.1612 35.5275 23.0056C40.2617 16.7815 46.3235 12.4939 54.1304 10.9098C55.1198 10.7108 56.1426 10.6569 57.132 10.4579C57.3992 10.4039 57.7541 10.1137 57.8251 9.86488C58.564 7.27323 59.2904 4.68158 59.9375 2.06919C60.284 0.680065 61.9122 -0.310983 63.3608 0.0953878C65.2562 0.622012 66.6339 1.89503 67.8863 3.28416C70.124 5.77214 72.0235 8.50064 73.3845 11.5774C73.4722 11.7723 73.7227 11.9589 73.9356 12.0211C78.3859 13.3522 82.8404 14.675 87.3074 15.9522C87.6122 16.0392 88.0756 15.8485 88.3762 15.6536C90.3467 14.3764 92.2796 13.0495 94.2501 11.7682C94.6676 11.4987 95.1686 11.3577 95.632 11.1545C97.7611 10.2215 99.3392 11.8719 99.8402 13.4061C100.475 15.355 100.575 17.3869 100.462 19.398C100.383 20.783 100.926 21.405 102.149 22.0063C105.351 23.5861 108.449 25.3816 111.605 27.0652C111.88 27.2144 112.323 27.2766 112.603 27.1688C115.446 26.0326 118.397 25.3982 121.445 25.1204C123.616 24.9214 125.77 24.8716 127.916 25.307C129.176 25.5641 130.32 26.0617 131.034 27.1854C131.736 28.2884 131.51 29.4619 130.671 30.4571C128.872 32.5926 127.143 34.7821 125.369 36.9383C124.81 37.6184 124.868 38.1326 125.423 38.8582C127.999 42.2253 129.31 46.1149 130.003 50.2449C131.139 57.0164 129.556 63.1078 125.281 68.4736C122.388 72.1019 118.552 74.4364 114.197 75.9417C112.849 76.4102 111.413 76.6217 110.018 76.9535C109.764 77.0157 109.509 77.0862 109.171 77.1691C109.304 78.9148 109.409 80.6315 109.576 82.3482C109.701 83.6669 109.847 84.9897 110.085 86.2958C110.432 88.1867 111.626 89.6505 112.74 91.1474C113.55 92.238 114.444 93.2747 115.162 94.4233C116.74 96.9403 116.068 99.1173 113.387 100.482C113.25 100.552 113.112 100.627 112.978 100.697C113.508 103.256 113.033 104.379 110.791 105.739C110.415 105.968 110.377 106.208 110.586 106.507C110.799 106.809 111.049 107.095 111.321 107.344C115.926 111.557 121.123 114.953 126.471 118.125C128.801 119.506 131.306 120.58 133.694 121.866C134.428 122.264 135.146 122.815 135.668 123.458C137.184 125.312 137.413 128.019 134.996 129.678C135.551 131.258 136.215 132.792 136.62 134.393C137.117 136.342 137.188 138.345 136.407 140.264C135.401 142.732 133.293 143.893 130.905 144.643C128.584 145.373 126.191 145.278 123.816 145.016C117.667 144.341 112.59 141.343 107.885 137.598C106.637 136.607 105.489 135.492 104.416 134.538C103.84 136.184 103.355 138.025 102.566 139.721C101.322 142.396 99.6607 144.805 97.2602 146.638C97.0973 146.762 97.018 147.21 97.1099 147.413C97.5065 148.28 97.949 149.138 98.4541 149.947C98.5877 150.162 99.0219 150.303 99.31 150.295C101.531 150.216 103.673 150.498 105.735 151.361C107.618 152.149 109.054 153.426 109.952 155.221C111.054 157.419 110.294 159.758 108.54 161.723C106.311 164.224 103.309 165.422 100.203 166.401C94.5173 168.188 88.6684 168.64 82.7569 168.321C80.2103 168.184 77.672 167.802 75.2423 166.919C73.3595 166.235 72.0235 165.082 71.6812 163.013C71.6436 162.789 71.5393 162.495 71.3723 162.395C70.4162 161.827 70.2033 160.869 69.9487 159.92C69.5604 158.489 69.1513 157.067 68.763 155.636C68.6253 155.134 68.3873 154.89 67.8028 154.935C66.9762 154.997 66.1412 154.952 65.1643 154.952L65.1685 154.948ZM99.7859 114.891C99.8569 114.879 99.9237 114.866 99.9946 114.854C100.016 114.87 100.049 114.883 100.053 114.904C101.777 119.639 102.984 124.511 103.915 129.454C104.027 130.064 104.015 130.789 104.357 131.241C105.209 132.361 106.152 133.443 107.2 134.384C109.864 136.781 112.774 138.871 115.967 140.513C118.848 141.994 121.9 142.922 125.19 143.15C127.486 143.308 129.661 143.126 131.748 142.172C133.264 141.479 134.428 140.472 134.762 138.714C135.155 136.661 134.837 134.704 134.036 132.817C133.451 131.44 132.771 130.105 132.12 128.728C132.562 128.563 133.026 128.422 133.451 128.214C134.771 127.576 135.184 126.311 134.353 125.108C133.932 124.499 133.322 123.927 132.667 123.582C131.189 122.807 129.581 122.268 128.116 121.472C126.171 120.419 124.284 119.249 122.413 118.059C117.282 114.8 112.294 111.35 107.927 107.095C107.526 106.706 107.129 106.565 106.587 106.565C104.395 106.573 102.278 106.2 100.308 105.209C99.7024 104.906 99.1138 104.57 98.5627 104.276C98.2078 104.69 97.949 105.113 97.5816 105.408C95.4107 107.149 92.9601 107.738 90.2256 107.1C87.5997 106.486 85.4079 105.093 83.4959 103.268C81.4794 101.344 79.9139 99.109 79.3753 96.3224C79.1833 95.3148 79.1415 94.2574 79.6843 93.059C79.8429 93.7308 79.9682 94.1828 80.0517 94.6472C80.6445 98.0018 82.1724 100.805 84.9362 102.882C87.5621 104.856 90.4385 106.03 93.8076 105.478C95.4692 105.205 97.0264 104.587 97.3562 102.754C97.5399 101.734 97.2727 100.606 97.0681 99.5568C96.851 98.4248 96.4711 97.3218 96.1622 96.2063C96.2331 96.1566 96.3041 96.111 96.3709 96.0612C96.4085 96.1607 96.4502 96.2602 96.4878 96.3598C97.1349 98.064 97.782 99.7641 98.4291 101.468C98.5001 101.659 98.5001 101.941 98.6337 102.041C99.431 102.617 100.199 103.276 101.084 103.679C102.984 104.549 105.034 104.873 107.108 104.649C108.119 104.541 109.158 104.263 110.068 103.82C111.242 103.247 111.505 102.377 110.92 101.215C110.448 100.278 109.772 99.4407 109.158 98.5824C108.82 98.1096 108.419 97.6784 108.023 97.2057C108.958 97.7074 109.805 98.2009 110.686 98.6363C111.776 99.1712 112.49 98.9638 113.592 97.865C114.168 97.2886 114.139 96.4676 113.442 95.4599C112.548 94.1703 111.576 92.9346 110.632 91.6782C109.509 90.1813 108.394 88.6387 108.161 86.7437C107.756 83.4264 107.442 80.0966 107.196 76.7669C107.046 74.7516 107 72.7156 107.075 70.692C107.179 67.9262 107.413 65.1687 107.655 62.4112C107.751 61.304 107.493 60.3793 106.749 59.5583C106.073 58.8119 105.426 58.0406 104.766 57.2776C104.695 57.3274 104.624 57.3813 104.558 57.431C104.558 57.7503 104.566 58.0655 104.558 58.3848C104.499 60.3461 104.587 62.3241 104.345 64.2647C103.844 68.2745 102.078 71.7619 99.3016 74.6935C95.5819 78.6204 90.7391 80.1547 85.5206 80.5942C82.0556 80.8845 78.5863 80.6896 75.163 79.8478C68.763 78.2721 62.7346 75.9666 57.7165 71.5545C55.5206 69.6263 53.4791 67.553 52.1974 64.8618C50.3856 61.0635 50.0224 57.0869 50.5776 52.9693C51.1537 48.7024 52.9155 45.016 55.9506 41.9433C56.5977 41.2882 57.3032 40.6869 57.9837 40.0649C57.9336 39.9529 57.8793 39.841 57.8292 39.729C56.0967 39.9488 54.36 40.1188 52.6441 40.4257C52.164 40.5127 51.638 40.9233 51.3416 41.3338C49.4296 43.9835 47.5509 46.6581 45.714 49.3617C41.8941 54.9721 38.2077 60.6737 33.5403 65.658C33.4109 65.7948 33.3399 66.1141 33.4067 66.2883C33.6071 66.8273 33.8868 67.3332 34.154 67.8847C35.1935 67.4908 36.1328 67.1383 37.068 66.7817L37.1724 66.931C36.3332 67.5447 35.4899 68.1584 34.6049 68.8053C36.4334 72.0397 37.9656 75.4524 40.2617 78.355C42.2614 77.281 43.8729 75.7426 45.81 75.1165C44.9876 76.0453 43.9146 76.9452 43.2509 78.0772C42.1111 80.0261 41.606 82.1409 41.8231 84.4921C42.0819 87.3201 44.2319 90.3388 47.1376 91.0852C51.6756 92.2504 57.1696 90.2559 59.829 86.3995C60.1045 86.0014 60.426 85.6365 60.7265 85.2592C60.5804 86.7229 59.8373 87.8508 58.8562 88.788C55.6959 91.815 51.8593 93.0881 47.5592 92.408C44.6661 91.9519 42.4034 90.3388 41.1008 87.5772C40.0947 85.4458 40.3452 83.3061 40.7919 81.1167C40.8796 80.6854 40.7794 80.0966 40.5331 79.74C38.9717 77.4967 37.2934 75.3363 35.7446 73.0846C32.9308 68.9877 31.0438 64.414 29.0399 59.9066C27.9085 57.3689 26.8773 54.7896 26.464 52.0155C26.2386 50.5062 25.7251 49.0921 24.8233 47.8399C23.6252 46.1771 21.8425 45.9573 20.2603 47.2593C20.039 47.4418 19.8219 47.6367 19.5506 47.8647C16.766 44.9414 13.5639 43.0629 9.48931 44.7423C5.76122 46.2766 4.52548 49.6022 4.0913 53.3217C2.52993 53.9479 2.054 54.6486 2.0707 56.4068C2.07905 57.0952 2.12915 57.7835 2.22934 58.4636C2.50905 60.3461 2.71779 62.2495 3.14362 64.0989C4.72587 70.9698 7.91541 77.1276 11.9775 82.8334C14.1442 85.8812 16.4821 88.8419 19.0162 91.5953C21.7256 94.5352 24.6897 97.2554 27.6705 99.93C29.2611 101.361 31.1189 102.497 32.9141 103.811C32.8473 103.973 32.6928 104.267 32.5926 104.583C30.8267 110.069 29.6995 115.687 29.1651 121.414C28.8729 124.561 28.9271 127.721 29.4448 130.868C30.3257 136.205 32.2837 141.04 35.8239 145.211C36.3875 145.875 37.2851 146.406 37.0596 147.558C36.8759 148.491 36.8133 149.453 36.7758 150.403C36.7298 151.539 36.7632 152.684 36.7632 153.857C36.997 153.82 37.1807 153.778 37.3644 153.766C38.8548 153.687 40.3703 153.413 41.8356 153.588C45.4635 154.011 48.653 155.59 51.6422 157.635C52.6692 158.336 53.7839 158.937 54.9194 159.451C56.7855 160.297 57.3283 159.492 57.8376 158.236C57.9419 157.983 58.1465 157.772 58.301 157.539C58.4763 157.772 58.6851 157.983 58.8228 158.236C59.4908 159.459 60.3091 160.521 61.7118 160.956C63.1437 161.4 63.557 161.076 63.4652 159.633C63.3775 158.282 63.2105 156.93 63.1938 155.578C63.1813 154.852 62.935 154.595 62.2378 154.442C60.7307 154.11 59.2403 153.704 57.7666 153.252C57.178 153.073 56.6519 152.7 56.1009 152.414C56.1259 152.348 56.151 152.281 56.176 152.219C63.7366 153.737 71.2428 153.753 78.6698 151.373C77.5468 152.373 76.1941 152.854 74.8206 153.26C73.4263 153.671 72.0152 154.035 70.5373 154.442C70.6834 154.931 70.8295 155.379 70.9548 155.835C71.318 157.162 71.677 158.493 72.0277 159.824C72.2531 160.687 72.5704 160.828 73.2217 160.214C73.6767 159.787 73.9899 159.206 74.3489 158.684C74.5785 158.348 74.7831 157.995 75.0252 157.61C75.2005 157.772 75.2966 157.83 75.3508 157.913C76.0856 159.128 77.2086 159.737 78.578 159.559C80.0809 159.364 80.8031 158.286 81.1121 156.851C81.2248 156.324 81.6089 155.856 81.9261 155.25C82.2726 155.731 82.5023 156.051 82.7277 156.374C83.6628 157.722 84.2014 157.846 85.6542 157.029C85.863 156.913 86.055 156.768 86.2512 156.627C87.3993 155.802 88.5098 154.923 89.6954 154.164C91.858 152.783 94.1332 151.622 96.6506 150.946C96.0328 149.731 95.4316 148.583 94.8596 147.417C94.3127 146.306 94.3503 146.327 95.3063 145.601C99.9111 142.118 102.266 137.445 102.504 131.747C102.65 128.306 101.748 124.967 101.126 121.613C100.713 119.378 100.249 117.151 99.8068 114.92L99.7859 114.891ZM40.483 54.433C40.7919 54.0847 40.9839 53.9023 41.1342 53.6949C44.0148 49.6519 46.8662 45.5882 49.7844 41.5701C50.2979 40.8611 50.9701 40.069 51.7424 39.7871C53.095 39.2936 54.5812 38.9536 56.0215 38.9246C59.5826 38.8499 63.1479 38.9702 66.709 39.0324C69.6314 39.0821 72.4911 39.6212 75.2966 40.3676C83.0867 42.4368 90.5095 45.3892 97.2643 49.822C100.771 52.1233 104.132 54.6072 106.77 57.9328C107.981 59.4588 108.925 61.0055 108.611 63.0663C108.474 63.9827 108.49 64.9282 108.495 65.857C108.511 68.4445 108.561 71.0279 108.595 73.6154C108.616 75.1538 108.507 75.1704 110.064 74.9092C114.356 74.1918 118.126 72.3631 121.403 69.5807C124.513 66.9435 126.5 63.5391 127.619 59.6578C128.383 57.0039 128.538 54.3003 128.17 51.5428C127.811 48.8682 127.185 46.2683 126.05 43.8425C124.342 40.1893 121.729 37.1954 118.614 34.6494C114.523 31.303 110.189 28.3009 105.464 25.8875C103.689 24.9794 101.911 24.0879 100.049 23.1424C99.9821 23.6566 99.9237 24.0506 99.8819 24.4445C99.6064 26.92 99.3016 29.3914 99.0762 31.8711C98.9342 33.4344 97.9198 34.0688 96.6005 34.5291C94.5465 35.2423 92.48 35.1926 90.3634 34.8526C85.7586 34.1145 82.473 31.556 80.1059 27.6955C79.392 26.5344 79.3795 25.307 80.1936 24.1791C80.8616 23.2544 81.6047 22.3753 82.3561 21.5087C83.5084 20.1776 84.6898 18.8714 85.863 17.5569C85.9882 17.7311 85.8504 17.6606 85.7043 17.6191C80.8574 16.2549 76.0021 14.9196 71.1677 13.5139C68.7213 12.8007 66.2247 12.3238 63.699 12.3031C60.952 12.2782 58.1841 12.4482 55.4538 12.78C51.805 13.2278 48.4485 14.6169 45.3508 16.5659C42.7123 18.2287 40.4621 20.3352 38.3956 22.6697C35.4607 25.9829 34.1039 29.9098 33.486 34.1684C33.198 36.1588 33.3274 38.1409 33.6405 40.123C34.1582 43.4071 34.8762 46.6249 36.8175 49.4156C37.9823 51.0908 39.2222 52.708 40.483 54.4247V54.433ZM83.2454 80.2625C84.1054 80.1795 85.6292 80.1049 87.1321 79.8768C90.5471 79.3627 93.745 78.2389 96.5713 76.2195C99.1847 74.3494 101.005 71.8199 102.245 68.9297C102.946 67.2876 103.447 65.5087 103.702 63.7422C103.94 62.0836 103.835 60.3503 103.685 58.6667C103.577 57.4393 103.568 56.0834 102.341 55.225C99.8485 53.4876 97.4313 51.6257 94.8638 50.0003C88.9982 46.2932 82.5774 43.8093 75.9019 41.9599C72.7833 41.0933 69.6105 40.4837 66.3583 40.3261C64.2167 40.2225 62.0792 40.0773 59.9375 39.9778C59.6912 39.9654 59.3739 40.0317 59.2027 40.1893C57.9837 41.3089 56.6394 42.3331 55.6291 43.6186C51.9803 48.2711 50.4774 53.5125 51.2915 59.4422C51.9177 64.0159 54.1471 67.5945 57.5078 70.6174C59.9709 72.8317 62.7263 74.6106 65.7321 75.9914C71.0759 78.4462 76.62 80.1588 83.2412 80.2583L83.2454 80.2625ZM107.038 160.351C108.006 159.065 108.837 157.83 108.131 156.225C107.676 155.184 106.992 154.297 105.965 153.729C103.005 152.095 99.8318 151.85 96.6423 152.684C94.7094 153.19 92.8432 154.056 91.0439 154.944C89.3781 155.769 87.8251 156.822 86.2429 157.809C84.4895 158.899 83.3623 158.7 82.2393 157.042C82.1474 156.905 82.0472 156.776 81.9136 156.59C81.6924 158.365 80.8908 159.662 79.6091 160.069C77.8808 160.616 76.3611 160.177 75.2465 158.862C74.6912 159.691 74.1485 160.5 73.6141 161.309C73.5599 161.392 73.4931 161.512 73.5139 161.599C73.7561 162.735 73.8437 163.975 75.0837 164.572C75.7057 164.871 76.357 165.153 77.0249 165.314C80.7113 166.214 84.4477 166.629 88.2426 166.272C90.6598 166.044 93.0728 165.779 95.4733 165.451C96.5379 165.306 97.5774 164.97 98.6629 164.713C97.6108 161.586 95.8908 159.327 92.4758 158.767C94.8137 157.763 98.0742 160.334 99.7567 164.361C101.706 163.801 103.535 163.009 105.263 161.906C106.052 161.404 106.098 160.952 105.823 160.226C104.9 157.809 103.209 156.134 100.863 155.072C100.638 154.973 100.42 154.861 100.199 154.757C100.224 154.67 100.249 154.579 100.274 154.492C100.721 154.562 101.193 154.558 101.606 154.72C104.257 155.74 105.944 157.718 107.046 160.359L107.038 160.351ZM58.3761 159.215C57.4953 160.67 56.6436 161.023 54.9111 160.566C54.4268 160.438 53.9383 160.251 53.5042 159.998C51.7716 159.003 50.0892 157.913 48.3316 156.967C45.1003 155.234 41.7229 154.044 37.9405 154.579C34.6675 155.043 31.2233 157.722 30.3299 161.035C29.52 164.041 32.2211 166.318 34.3001 166.334C34.68 164.983 35.0307 163.622 35.4482 162.287C36.0076 160.496 37.0304 158.987 38.4916 157.788C38.7504 157.577 39.1095 157.485 39.4226 157.336L39.5436 157.548C39.5019 157.639 39.4768 157.738 39.4184 157.821C39.3433 157.929 39.2639 158.045 39.1637 158.128C36.6088 160.268 35.8364 163.229 35.3647 166.318C35.3396 166.488 35.5692 166.844 35.7237 166.873C37.8362 167.255 39.9611 167.591 42.061 167.935C42.2239 167.06 42.299 166.339 42.4994 165.658C43.0505 163.797 43.6516 161.939 45.0669 160.508C45.3132 160.26 45.7182 160.164 46.0521 159.998L46.3026 160.264C44.2236 162.374 43.4721 164.987 43.1256 167.823C43.3594 167.848 43.4888 167.865 43.6182 167.873C47.1919 168.026 50.753 167.869 54.2598 167.193C56.6645 166.728 59.0357 166.073 61.3945 165.406C62.4382 165.111 63.0352 163.784 62.7304 162.735C62.672 162.54 62.3839 162.391 62.171 162.267C61.574 161.918 60.8977 161.674 60.3759 161.238C59.6453 160.629 59.0316 159.886 58.372 159.21L58.3761 159.215ZM90.4719 26.5178C92.3756 27.343 94.1499 27.8821 96.1288 27.5047C97.4271 27.2559 97.4647 27.3803 97.7653 26.128C97.8321 25.8419 97.9323 25.5682 98.0283 25.2904C98.6504 23.4576 98.7422 21.5709 98.7255 19.6593C97.0222 19.821 95.561 21.1355 93.841 20.3891C89.9376 18.7014 89.9459 18.6765 89.7998 17.9343C91.2443 18.5397 92.6637 19.1534 94.0998 19.7215C94.4505 19.8624 94.893 19.9537 95.2521 19.8749C96.4168 19.6178 97.5607 19.2778 98.7297 18.9626C98.6712 18.096 98.6545 17.2418 98.5502 16.4C98.45 15.6163 98.3122 14.8284 98.0951 14.0696C97.8321 13.1573 97.3061 12.8214 96.4168 13.1241C95.49 13.4393 94.63 13.9493 93.6782 14.4013C95.0642 15.2804 96.3041 16.0849 97.9532 15.5748C97.6275 15.89 97.2977 16.0931 96.947 16.1346C96.1413 16.2341 95.3773 16.1761 94.676 15.6204C93.7992 14.9238 92.8975 14.8118 91.9289 15.6204C90.6849 16.6571 89.3364 17.5652 88.0547 18.5604C87.3826 19.0829 86.7814 19.651 86.4641 20.5093C86.0467 21.6455 86.414 23.0885 87.4243 23.7769C87.9086 24.1086 88.372 24.4694 88.8438 24.8177C88.7853 24.9131 88.731 25.0043 88.6726 25.0997C87.9963 24.7638 87.2156 24.5399 86.677 24.0547C86.1636 23.5903 85.9005 22.848 85.433 22.0643C84.9988 23.1259 84.6064 24.1003 84.2056 25.0665C83.9718 25.6263 83.6628 26.1695 84.1346 26.7666C84.5103 27.2476 84.7441 27.9691 85.2284 28.2138C87.1446 29.1675 88.9356 30.5235 91.2693 30.3908C91.5449 30.3742 92.0542 30.6562 92.0918 30.8593C92.2295 31.6596 92.8098 31.7467 93.3442 31.6182C94.3712 31.3777 95.3648 30.992 96.3667 30.6562C96.4544 30.6271 96.5504 30.5193 96.5797 30.4281C96.8134 29.661 97.0347 28.8897 97.3186 27.9194C94.7052 28.6865 92.3882 28.8233 90.4719 26.5178Z" fill="#368DAD"/>
<path d="M40.483 54.433C39.2222 52.7163 37.9781 51.0949 36.8175 49.4238C34.8762 46.6331 34.1581 43.4153 33.6405 40.1312C33.3274 38.1491 33.1979 36.1711 33.486 34.1766C34.1039 29.9139 35.4607 25.9911 38.3956 22.678C40.4621 20.3434 42.7123 18.2369 45.3508 16.5741C48.4443 14.6252 51.805 13.2361 55.4538 12.7882C58.1841 12.4565 60.952 12.2865 63.699 12.3114C66.2247 12.3321 68.7213 12.8089 71.1677 13.5222C76.0021 14.9279 80.8574 16.2631 85.7043 17.6273C85.8504 17.6688 85.9882 17.7393 85.863 17.5652C84.694 18.8796 83.5084 20.1858 82.3561 21.5169C81.6088 22.3836 80.8657 23.2585 80.1936 24.1873C79.3795 25.3152 79.3962 26.5426 80.1059 27.7037C82.473 31.5642 85.7628 34.1227 90.3634 34.8608C92.48 35.2008 94.5465 35.2506 96.6005 34.5374C97.9198 34.0771 98.9342 33.4427 99.0762 31.8794C99.3016 29.3997 99.6064 26.9283 99.8819 24.4527C99.9237 24.0588 99.9821 23.6649 100.049 23.1507C101.907 24.092 103.689 24.9876 105.464 25.8958C110.189 28.3091 114.523 31.3113 118.614 34.6576C121.729 37.2037 124.342 40.1975 126.05 43.8507C127.185 46.2807 127.811 48.8765 128.17 51.5511C128.538 54.3086 128.383 57.0163 127.619 59.666C126.5 63.5514 124.513 66.9517 121.403 69.589C118.126 72.3714 114.356 74.2 110.064 74.9174C108.507 75.1786 108.616 75.1621 108.595 73.6236C108.561 71.0361 108.511 68.4528 108.495 65.8653C108.49 64.9323 108.469 63.991 108.611 63.0746C108.925 61.0137 107.981 59.4628 106.77 57.941C104.132 54.6154 100.771 52.1316 97.2643 49.8302C90.5053 45.3933 83.0825 42.445 75.2966 40.3758C72.4953 39.6294 69.6314 39.0945 66.709 39.0406C63.1479 38.9784 59.5826 38.854 56.0215 38.9328C54.5854 38.9618 53.0992 39.3019 51.7424 39.7953C50.97 40.0773 50.2979 40.8693 49.7844 41.5784C46.8704 45.5965 44.0148 49.6602 41.1342 53.7032C40.9839 53.9105 40.7961 54.0929 40.483 54.4413V54.433ZM118.435 45.103C121.595 45.1486 122.438 43.9585 122.384 42.1091C122.363 41.4457 122.129 40.7573 121.866 40.1353C120.447 36.7683 117.955 34.3674 114.823 32.5677C113.421 31.7591 111.972 31.1786 110.281 31.5311C109.254 31.7425 108.298 32.5884 108.307 33.6251C108.315 34.6244 108.365 35.6694 108.67 36.6065C109.517 39.2065 111.2 41.2591 113.396 42.868C115.157 44.1576 117.099 45.0823 118.439 45.1072L118.435 45.103ZM66.6881 22.4084C69.3016 22.5121 71.1552 21.8113 72.7332 20.8327C74.5785 19.6882 75.4468 17.8513 74.0399 16.1429C73.4805 15.4628 72.608 14.9445 71.773 14.6044C69.552 13.6963 67.1891 13.3895 64.7928 13.4641C62.8139 13.5263 60.8434 13.7212 59.0775 14.7371C58.0338 15.3384 57.1446 16.1055 56.8982 17.3495C56.6436 18.6267 57.3533 19.9909 58.6475 20.7498C60.9561 22.1099 63.5195 22.3794 66.6881 22.4043V22.4084Z" fill="white"/>
<path d="M83.2454 80.2583C76.62 80.1588 71.08 78.4462 65.7363 75.9914C62.7304 74.6106 59.9751 72.8317 57.5119 70.6173C54.1512 67.5944 51.9219 64.0159 51.2957 59.4421C50.4858 53.5124 51.9887 48.2711 55.6333 43.6185C56.6436 42.3331 57.9879 41.3047 59.2069 40.1893C59.3781 40.0317 59.6954 39.9653 59.9417 39.9778C62.0833 40.0815 64.2208 40.2266 66.3625 40.3261C69.6105 40.4837 72.7875 41.0932 75.9061 41.9599C82.5774 43.8093 88.9982 46.2931 94.868 50.0002C97.4355 51.6216 99.8485 53.4834 102.345 55.225C103.572 56.0792 103.577 57.4352 103.689 58.6667C103.84 60.3502 103.944 62.0794 103.706 63.7422C103.451 65.5087 102.95 67.2876 102.249 68.9297C101.009 71.8199 99.1889 74.3493 96.5755 76.2195C93.7491 78.243 90.5512 79.3668 87.1363 79.8768C85.6333 80.1007 84.1095 80.1795 83.2495 80.2624L83.2454 80.2583ZM90.2131 64.4098V63.9827C89.7205 63.8832 89.2278 63.7298 88.7269 63.6924C85.6083 63.4602 82.4855 63.2819 79.367 63.0331C77.5384 62.888 75.76 62.4609 74.3155 61.2667C72.7124 59.9397 71.1719 58.5382 69.6272 57.1407C68.6753 56.2782 67.7861 55.3535 66.8384 54.491C66.6965 54.3625 66.3834 54.4247 66.1538 54.3998C66.1746 54.6403 66.1538 54.8891 66.2247 55.113C66.2665 55.2499 66.4293 55.3494 66.5462 55.4614C68.4374 57.232 70.2534 59.098 72.2531 60.74C73.468 61.7352 74.8749 62.7429 76.3569 63.1161C78.9745 63.7754 81.709 63.9827 84.4059 64.3186C85.8087 64.4927 87.2281 64.5674 88.6434 64.6254C89.1652 64.6462 89.6912 64.4928 90.2173 64.4181L90.2131 64.4098ZM96.4293 58.7123C96.2916 58.3184 96.2164 57.8913 96.0077 57.543C94.7344 55.4323 91.4029 55.3328 89.637 57.0163C89.1777 57.4559 89.2612 58.194 89.7914 58.646C90.067 58.8823 90.3968 59.1021 90.7433 59.2182C91.9456 59.6246 93.148 60.0351 94.3754 60.342C95.5902 60.6447 96.3292 59.9978 96.4293 58.7123ZM71.0341 49.7722C71.0007 47.9725 69.193 45.4721 66.7382 45.7458C65.8114 45.8494 65.0474 46.4424 64.9681 47.2842C64.8971 48.072 65.3772 48.5074 66.0744 48.8475C66.9762 49.287 67.8195 49.8592 68.7004 50.3485C69.0427 50.5393 69.4101 50.7217 69.79 50.8088C70.5289 50.9747 71.0299 50.5351 71.0383 49.7763L71.0341 49.7722Z" fill="#A4E8FD"/>
<path d="M107.038 160.351C105.935 157.709 104.249 155.731 101.598 154.711C101.184 154.554 100.713 154.558 100.266 154.483C100.241 154.57 100.216 154.662 100.191 154.749C100.412 154.856 100.633 154.964 100.855 155.064C103.201 156.125 104.892 157.801 105.814 160.218C106.09 160.944 106.044 161.396 105.255 161.897C103.527 163 101.698 163.788 99.7483 164.352C98.0659 160.326 94.8054 157.755 92.4675 158.758C95.8825 159.318 97.6025 161.578 98.6545 164.705C97.5691 164.962 96.5296 165.298 95.465 165.443C93.0603 165.77 90.6473 166.04 88.2343 166.264C84.4394 166.62 80.7029 166.206 77.0166 165.306C76.3486 165.144 75.6974 164.862 75.0753 164.564C73.8312 163.967 73.7477 162.727 73.5056 161.591C73.4889 161.504 73.5515 161.387 73.6058 161.3C74.1402 160.492 74.6829 159.683 75.2381 158.854C76.3528 160.168 77.8724 160.608 79.6008 160.061C80.8866 159.654 81.6882 158.356 81.9053 156.581C82.0389 156.768 82.1391 156.901 82.2309 157.033C83.3539 158.692 84.4811 158.895 86.2345 157.801C87.8168 156.814 89.3698 155.76 91.0355 154.935C92.839 154.044 94.701 153.177 96.6339 152.675C99.8193 151.846 102.996 152.087 105.956 153.72C106.987 154.288 107.668 155.176 108.123 156.217C108.829 157.821 107.998 159.057 107.029 160.342L107.038 160.351Z" fill="#A4E8FD"/>
<path d="M58.3761 159.215C59.0316 159.891 59.6494 160.633 60.38 161.242C60.9019 161.678 61.5782 161.918 62.1752 162.271C62.3881 162.395 62.6762 162.544 62.7346 162.739C63.0394 163.788 62.4466 165.115 61.3987 165.41C59.0399 166.077 56.6686 166.732 54.264 167.197C50.7571 167.873 47.1919 168.035 43.6224 167.877C43.493 167.873 43.3636 167.852 43.1298 167.827C43.4763 164.991 44.2278 162.379 46.3068 160.268L46.0563 160.002C45.7223 160.168 45.3174 160.264 45.0711 160.513C43.6516 161.943 43.0546 163.801 42.5036 165.663C42.3032 166.347 42.228 167.068 42.0652 167.939C39.9653 167.595 37.8445 167.255 35.7279 166.878C35.5734 166.849 35.3438 166.492 35.3689 166.322C35.8406 163.233 36.6129 160.272 39.1679 158.132C39.2681 158.049 39.3474 157.937 39.4226 157.825C39.4768 157.743 39.5061 157.643 39.5478 157.552L39.4268 157.34C39.1136 157.485 38.7546 157.581 38.4958 157.792C37.0346 158.987 36.0118 160.496 35.4523 162.291C35.0349 163.627 34.6842 164.983 34.3043 166.339C32.2294 166.322 29.5283 164.041 30.3341 161.039C31.2275 157.726 34.6717 155.043 37.9447 154.583C41.7271 154.048 45.1045 155.238 48.3358 156.971C50.0975 157.917 51.7758 159.007 53.5083 160.002C53.9425 160.251 54.4268 160.442 54.9152 160.571C56.6478 161.027 57.4994 160.674 58.3803 159.219L58.3761 159.215Z" fill="#A4E8FD"/>
<path d="M90.4719 26.5179C92.3882 28.8234 94.7052 28.6866 97.3186 27.9194C97.0347 28.8856 97.2309 29.6113 96.993 30.3784C96.9637 30.4696 97.0305 31.3197 96.9429 31.3487C96.7216 32.4102 96.6882 32.12 95.6612 32.3605C95.1268 32.4849 94.104 33.0156 92.9225 32.6839C92.3214 32.7876 92.0166 32.7917 91.1315 32.7046C88.7978 32.8373 86.7063 30.9092 84.7859 29.9554C84.3016 29.7149 82.352 27.2808 81.9762 26.7998C81.5045 26.1986 82.8822 24.7721 83.1159 24.2123C83.5167 23.242 84.6356 22.6034 85.0697 21.5419C85.5415 22.3256 86.1635 23.5903 86.677 24.0547C87.2156 24.5399 87.9963 24.7638 88.6726 25.0997C88.731 25.0043 88.7853 24.9131 88.8438 24.8177C88.372 24.4694 87.9086 24.1045 87.4243 23.7769C86.414 23.0927 86.0466 21.6455 86.4641 20.5094C86.7814 19.6469 87.3826 19.0829 88.0547 18.5604C89.3364 17.5652 90.6848 16.6571 91.9289 15.6205C92.8975 14.8119 93.7992 14.9238 94.6759 15.6205C95.3773 16.172 96.1413 16.2342 96.947 16.1347C97.2977 16.0932 97.6275 15.89 97.9532 15.5749C96.3041 16.0808 95.0642 15.2804 93.6782 14.4014C94.63 13.9494 95.49 13.4393 96.4168 13.1242C97.3019 12.8256 97.8279 13.1574 98.0951 14.0696C98.3164 14.8285 98.4541 15.6163 98.5502 16.4C98.6545 17.2418 98.6754 18.0919 98.7297 18.9627C97.5607 19.2778 96.4168 19.622 95.2521 19.8749C94.893 19.9537 94.4547 19.8625 94.0998 19.7215C92.6637 19.1534 91.2443 18.5397 89.7998 17.9343C89.9459 18.6807 89.9376 18.7014 93.841 20.3891C95.5568 21.1314 97.0222 19.8169 98.7255 19.6593C98.7422 21.5709 98.6504 23.4576 98.0283 25.2904C97.9323 25.5683 97.8363 25.8461 97.7653 26.1281C97.4647 27.3804 97.4271 27.256 96.1288 27.5048C94.1457 27.8862 92.3756 27.3472 90.4719 26.5179Z" fill="#FFEDC3"/>
<path d="M118.376 44.8003C117.036 44.7713 115.095 43.8508 113.333 42.5612C111.141 40.9523 109.455 38.9038 108.607 36.2997C108.302 35.3626 108.252 34.3176 108.244 33.3183C108.236 32.2816 109.192 31.4357 110.219 31.2242C111.91 30.8718 113.358 31.4523 114.761 32.2609C117.892 34.0647 120.384 36.4656 121.804 39.8285C122.067 40.4505 122.305 41.1389 122.321 41.8023C122.376 43.6517 121.532 44.8418 118.372 44.7962L118.376 44.8003ZM111.371 31.5643C109.743 31.6679 108.616 32.4475 108.591 33.7039C108.578 34.4586 108.695 35.2465 108.925 35.968C109.467 37.6681 110.482 39.1194 111.701 40.4008C113.529 42.3207 115.642 43.8217 118.314 44.3815C120.159 44.7713 121.265 44.253 121.775 42.6068C121.933 42.1009 121.862 41.4374 121.674 40.9232C120.117 36.6688 117.061 33.8159 112.978 31.9748C112.481 31.7509 111.91 31.7011 111.371 31.5684V31.5643Z" fill="#368DAD"/>
<path d="M67.0472 22.4043C63.8785 22.3794 61.3194 22.1057 59.0065 20.7498C57.7123 19.9909 57.0068 18.6267 57.2573 17.3495C57.5036 16.1055 58.3887 15.3384 59.4365 14.7371C61.2067 13.7212 63.173 13.5263 65.1518 13.4641C67.5482 13.3895 69.9069 13.6963 72.1321 14.6045C72.967 14.9445 73.8396 15.4628 74.399 16.1429C75.8059 17.8554 74.9417 19.6924 73.0923 20.8327C71.5142 21.8072 69.6606 22.5121 67.0472 22.4084V22.4043ZM66.4836 22.0601C68.6628 22.1928 70.6626 21.6289 72.5537 20.6088C74.0942 19.7753 74.8415 18.212 74.2821 16.8436C73.8479 15.7904 72.8376 15.4048 71.8816 15.0067C69.3642 13.9576 66.7049 13.7212 64.0246 13.912C62.2879 14.0364 60.6138 14.4925 59.161 15.554C57.1905 16.9929 57.1947 18.9128 59.2236 20.2729C61.4196 21.7491 63.937 21.9896 66.4878 22.0643L66.4836 22.0601Z" fill="#368DAD"/>
<path d="M90.2131 64.4141C89.6871 64.4887 89.1611 64.6421 88.6392 64.6214C87.224 64.5633 85.8045 64.4887 84.4018 64.3145C81.7091 63.9787 78.9704 63.7713 76.3528 63.112C74.8707 62.7388 73.4638 61.7312 72.249 60.736C70.2492 59.0939 68.4332 57.2321 66.542 55.4573C66.4251 55.3495 66.2581 55.2458 66.2206 55.109C66.1538 54.8851 66.1705 54.6363 66.1496 54.3958C66.3834 54.4206 66.6965 54.3626 66.8343 54.487C67.7819 55.3495 68.6753 56.2783 69.623 57.1367C71.1677 58.5341 72.7082 59.9357 74.3113 61.2626C75.7558 62.4568 77.5343 62.8839 79.3628 63.0291C82.4814 63.2779 85.6041 63.4562 88.7227 63.6884C89.2237 63.7257 89.7163 63.8791 90.2089 63.9787V64.4058L90.2131 64.4141Z" fill="#262467"/>
<path d="M96.4294 58.7165C96.3292 59.9978 95.5861 60.6488 94.3754 60.3461C93.148 60.0393 91.9415 59.6288 90.7433 59.2224C90.401 59.1063 90.0712 58.8907 89.7914 58.6502C89.2612 58.1982 89.1777 57.4601 89.637 57.0205C91.4029 55.337 94.7344 55.4365 96.0077 57.5472C96.2164 57.8955 96.2916 58.3267 96.4294 58.7165Z" fill="#262467"/>
<path d="M71.0341 49.7763C71.0258 50.5351 70.5248 50.9747 69.7858 50.8088C69.4059 50.7217 69.0386 50.5393 68.6962 50.3485C67.8153 49.8592 66.9762 49.2911 66.0703 48.8474C65.3773 48.5074 64.893 48.072 64.964 47.2842C65.0433 46.4424 65.8073 45.8494 66.7341 45.7458C69.1889 45.4721 70.9965 47.9766 71.0299 49.7721L71.0341 49.7763Z" fill="#262467"/>
<path d="M19.3919 68.3035C18.9035 69.5392 17.4548 70.0285 16.2775 69.4065C16.2692 69.4024 16.2608 69.3982 16.2525 69.3941C14.7412 68.6062 13.1882 67.893 11.6143 67.2295C9.73144 66.4375 8.18259 65.3345 7.43948 63.3483C6.15364 59.8983 9.4058 57.402 11.9608 57.5886C12.2948 57.6135 12.6287 57.6715 12.9627 57.7503C13.9229 57.9742 14.8706 57.4766 15.3465 56.6183C15.8934 55.6314 16.8161 55.0923 18.1812 54.9513C20.373 54.7274 22.7359 56.751 22.8904 58.9819C23.0156 60.7815 22.715 62.4899 21.6797 64.0076C20.7571 65.3635 19.9889 66.7858 19.3877 68.3035H19.3919Z" fill="#A4E8FD"/>
<path d="M114.481 129.458C114.385 128.957 114.719 128.488 115.22 128.372C116.698 128.032 117.925 127.19 119.144 126.274C121.052 124.839 123.144 124.043 125.578 124.934C127.419 125.61 128.492 127.211 128.337 129.114C128.149 131.432 126.834 133.058 124.86 133.418H124.851C124.359 133.51 124.029 133.978 124.1 134.472C124.208 135.247 124.317 136.002 124.388 136.76C124.605 139.041 122.088 141.052 119.336 140.277C117.879 139.866 116.886 138.879 116.201 137.569C115.237 135.72 115.099 133.68 114.853 131.664C114.765 130.943 114.623 130.225 114.477 129.458H114.481Z" fill="#A4E8FD"/>
<path d="M56.1134 101.157C56.1134 101.157 51.2247 110.807 61.1231 107.589C61.1231 107.589 62.9893 116.691 68.5 109.654C68.5 109.654 75.2339 115.845 76.3361 106.743C76.3361 106.743 73.6475 115.239 68.1493 107.593C68.1493 107.593 64.2375 115.48 61.6742 105.773C61.6742 105.773 54.7691 111.172 56.1134 101.162V101.157Z" fill="#368DAD"/>
<path d="M85.2994 64.4139C85.2994 64.4139 85.7419 68.9213 87.3325 66.2509L88.4639 64.613L85.2994 64.4139Z" fill="white" stroke="#262467" stroke-miterlimit="10"/>
<path d="M61.0104 58.4967C63.851 58.4967 66.1538 56.3227 66.1538 53.641C66.1538 50.9593 63.851 48.7853 61.0104 48.7853C58.1698 48.7853 55.8671 50.9593 55.8671 53.641C55.8671 56.3227 58.1698 58.4967 61.0104 58.4967Z" fill="#EF86A4"/>
<path d="M94.9181 71.5463C97.7587 71.5463 100.061 69.3723 100.061 66.6906C100.061 64.0088 97.7587 61.8348 94.9181 61.8348C92.0775 61.8348 89.7747 64.0088 89.7747 66.6906C89.7747 69.3723 92.0775 71.5463 94.9181 71.5463Z" fill="#EF86A4"/>
</g>
<defs>
<clipPath id="clip0_182_7133">
<rect width="137" height="170" fill="white"/>
</clipPath>
</defs>
</svg>
