<svg width="22" height="22" viewBox="0 0 22 22" fill="none" xmlns="http://www.w3.org/2000/svg">
<path d="M11.8158 5.39H4.68417C3.11667 5.39 1.83333 6.67333 1.83333 8.24083V18.6542C1.83333 19.9833 2.78667 20.5517 3.95083 19.9008L7.55333 17.8933C7.93833 17.6825 8.56167 17.6825 8.9375 17.8933L12.54 19.9008C13.7133 20.5425 14.6667 19.9833 14.6667 18.6542V8.24083C14.6667 6.67333 13.3833 5.39 11.8158 5.39Z" fill="#07C5F0"/>
<path d="M20.1667 4.68417V15.0975C20.1667 16.4267 19.2133 16.9858 18.0492 16.3442L16.28 15.3542C16.1333 15.2717 16.0417 15.1158 16.0417 14.9508V8.24083C16.0417 5.9125 14.1442 4.015 11.8158 4.015H8.085C7.74583 4.015 7.5075 3.6575 7.66333 3.36417C8.14 2.45667 9.09333 1.83333 10.1842 1.83333H17.3158C18.8833 1.83333 20.1667 3.11667 20.1667 4.68417Z" fill="#07C5F0"/>
</svg>
