<svg width="22" height="22" viewBox="0 0 22 22" fill="none" xmlns="http://www.w3.org/2000/svg">
<path d="M13.75 18.9475C13.5758 18.9475 13.4017 18.8833 13.2642 18.7458L7.2875 12.7692C6.31583 11.7975 6.31583 10.2025 7.2875 9.23083L13.2642 3.25417C13.53 2.98833 13.97 2.98833 14.2358 3.25417C14.5017 3.52 14.5017 3.96 14.2358 4.22583L8.25917 10.2025C7.81917 10.6425 7.81917 11.3575 8.25917 11.7975L14.2358 17.7742C14.5017 18.04 14.5017 18.48 14.2358 18.7458C14.0983 18.8742 13.9242 18.9475 13.75 18.9475Z" fill="#5B5B67"/>
<path fill-rule="evenodd" clip-rule="evenodd" d="M14.4862 19.014L14.486 19.0139C14.2882 19.1985 14.0269 19.3142 13.75 19.3142C13.4838 19.3142 13.2148 19.215 13.0049 19.0051L7.02823 13.0284C5.91337 11.9136 5.91337 10.0864 7.02823 8.97156L13.0049 2.99489C13.4139 2.58587 14.0861 2.58587 14.4951 2.99489C14.9041 3.40392 14.9041 4.07608 14.4951 4.48511L8.51844 10.4618C8.22163 10.7586 8.22163 11.2414 8.51844 11.5382L14.4951 17.5149C14.9041 17.9239 14.9041 18.5961 14.4951 19.0051L14.4862 19.014ZM13.2642 18.7458C13.4017 18.8833 13.5758 18.9475 13.75 18.9475C13.9242 18.9475 14.0983 18.8742 14.2358 18.7458C14.5017 18.48 14.5017 18.04 14.2358 17.7742L8.25917 11.7975C7.81917 11.3575 7.81917 10.6425 8.25917 10.2025L14.2358 4.22583C14.5017 3.96 14.5017 3.52 14.2358 3.25417C13.97 2.98833 13.53 2.98833 13.2642 3.25417L7.2875 9.23083C6.31583 10.2025 6.31583 11.7975 7.2875 12.7692L13.2642 18.7458Z" fill="#5B5B67"/>
</svg>
