<svg width="22" height="22" viewBox="0 0 22 22" fill="none" xmlns="http://www.w3.org/2000/svg">
<path d="M3.02521 20.8542C2.69521 20.8542 2.37437 20.7717 2.09937 20.6067C1.4852 20.2492 1.13688 19.5342 1.13688 18.645V8.23168C1.13688 6.27918 2.7227 4.69333 4.6752 4.69333H11.8069C13.7594 4.69333 15.3452 6.27918 15.3452 8.23168V18.645C15.3452 19.5342 14.9969 20.24 14.3827 20.6067C13.7686 20.9642 12.9802 20.9275 12.2011 20.4967L8.59856 18.4892C8.4244 18.3883 8.0577 18.3883 7.88354 18.4892L4.28104 20.4967C3.85938 20.735 3.42855 20.8542 3.02521 20.8542ZM4.68438 6.0775C3.49271 6.0775 2.52106 7.04916 2.52106 8.24082V18.6542C2.52106 19.03 2.63106 19.3233 2.80522 19.4242C2.97939 19.525 3.29107 19.4792 3.62107 19.2958L7.22356 17.2883C7.81023 16.9675 8.69022 16.9675 9.27689 17.2883L12.8794 19.2958C13.2094 19.4792 13.5119 19.525 13.6952 19.4242C13.8694 19.3233 13.9794 19.03 13.9794 18.6542V8.24082C13.9794 7.04916 13.0077 6.0775 11.8161 6.0775H4.68438Z" fill="#5B5B67"/>
<path d="M13.4658 20.8542C13.0625 20.8542 12.6408 20.735 12.21 20.5058L8.60751 18.4983C8.43335 18.4067 8.05748 18.4067 7.88331 18.4983L4.28999 20.5058C3.51083 20.9367 2.71332 20.9733 2.10832 20.6158C1.49415 20.2583 1.14583 19.5433 1.14583 18.6633V8.25C1.14583 6.2975 2.73165 4.71168 4.68415 4.71168H11.8158C13.7683 4.71168 15.3542 6.2975 15.3542 8.25V18.6633C15.3542 19.5433 15.0058 20.2583 14.3917 20.6158C14.1167 20.7717 13.805 20.8542 13.4658 20.8542ZM8.25 17.05C8.61667 17.05 8.97416 17.1325 9.27666 17.2975L12.8792 19.305C13.2092 19.4883 13.5208 19.5342 13.695 19.4242C13.8692 19.3233 13.9792 19.03 13.9792 18.6542V8.24082C13.9792 7.04916 13.0075 6.0775 11.8158 6.0775H4.68415C3.49249 6.0775 2.52083 7.04916 2.52083 8.24082V18.6542C2.52083 19.03 2.63083 19.3233 2.805 19.4242C2.97916 19.525 3.29084 19.4792 3.62084 19.2958L7.22334 17.2883C7.51667 17.1325 7.88333 17.05 8.25 17.05Z" fill="#5B5B67"/>
<path d="M18.9658 17.2975C18.5625 17.2975 18.1408 17.1783 17.71 16.9492L14.3275 15.0608C14.1075 14.9417 13.9792 14.7125 13.9792 14.465V8.25C13.9792 7.05833 13.0075 6.08668 11.8158 6.08668H7.33333C6.9575 6.08668 6.64583 5.77501 6.64583 5.39918V4.69333C6.64583 2.74083 8.23165 1.15501 10.1842 1.15501H17.3158C19.2683 1.15501 20.8542 2.74083 20.8542 4.69333V15.1067C20.8542 15.9867 20.5058 16.7017 19.8917 17.0592C19.6167 17.215 19.305 17.2975 18.9658 17.2975ZM15.3542 14.0525L18.3792 15.7483C18.7092 15.9317 19.0117 15.9775 19.195 15.8675C19.3783 15.7575 19.4792 15.4733 19.4792 15.0975V4.68415C19.4792 3.49249 18.5075 2.52083 17.3158 2.52083H10.1842C8.99249 2.52083 8.02083 3.49249 8.02083 4.68415V4.7025H11.8158C13.7683 4.7025 15.3542 6.28832 15.3542 8.24082V14.0525V14.0525Z" fill="#5B5B67"/>
</svg>
