<svg width="16" height="16" viewBox="0 0 16 16" fill="none" xmlns="http://www.w3.org/2000/svg">
<path d="M12.4467 1.33333H11.18C9.72667 1.33333 8.96 2.1 8.96 3.55333V4.82C8.96 6.27333 9.72667 7.04 11.18 7.04H12.4467C13.9 7.04 14.6667 6.27333 14.6667 4.82V3.55333C14.6667 2.1 13.9 1.33333 12.4467 1.33333Z" fill="white"/>
<path d="M4.82667 8.95333H3.56C2.1 8.95333 1.33334 9.72 1.33334 11.1733V12.44C1.33334 13.9 2.1 14.6667 3.55334 14.6667H4.82C6.27334 14.6667 7.04 13.9 7.04 12.4467V11.18C7.04667 9.72 6.28 8.95333 4.82667 8.95333Z" fill="white"/>
<path d="M4.19334 7.05333C5.77287 7.05333 7.05334 5.77287 7.05334 4.19333C7.05334 2.6138 5.77287 1.33333 4.19334 1.33333C2.6138 1.33333 1.33334 2.6138 1.33334 4.19333C1.33334 5.77287 2.6138 7.05333 4.19334 7.05333Z" fill="white"/>
<path d="M11.8067 14.6667C13.3862 14.6667 14.6667 13.3862 14.6667 11.8067C14.6667 10.2271 13.3862 8.94667 11.8067 8.94667C10.2271 8.94667 8.94667 10.2271 8.94667 11.8067C8.94667 13.3862 10.2271 14.6667 11.8067 14.6667Z" fill="white"/>
</svg>
