<svg width="22" height="22" viewBox="0 0 22 22" fill="none" xmlns="http://www.w3.org/2000/svg">
<path d="M8.1675 18.9475C7.99333 18.9475 7.81917 18.8833 7.68167 18.7458C7.41583 18.48 7.41583 18.04 7.68167 17.7742L13.6583 11.7975C14.0983 11.3575 14.0983 10.6425 13.6583 10.2025L7.68167 4.22583C7.41583 3.96 7.41583 3.52 7.68167 3.25417C7.9475 2.98833 8.3875 2.98833 8.65333 3.25417L14.63 9.23083C15.0975 9.69833 15.3633 10.3308 15.3633 11C15.3633 11.6692 15.1067 12.3017 14.63 12.7692L8.65333 18.7458C8.51583 18.8742 8.34167 18.9475 8.1675 18.9475Z" fill="#C0C0C8"/>
<path fill-rule="evenodd" clip-rule="evenodd" d="M8.90351 19.0139C8.70572 19.1985 8.44444 19.3142 8.1675 19.3142C7.90133 19.3142 7.63228 19.215 7.42239 19.0051C7.01337 18.5961 7.01337 17.9239 7.42239 17.5149L13.3991 11.5382C13.6959 11.2414 13.6959 10.7586 13.3991 10.4618L7.42239 4.48511C7.01337 4.07608 7.01337 3.40392 7.42239 2.99489C7.83142 2.58587 8.50358 2.58587 8.9126 2.99489L14.8893 8.97156C15.425 9.50724 15.73 10.2328 15.73 11C15.73 11.7635 15.4367 12.4909 14.8881 13.0296C14.8877 13.0301 14.8872 13.0305 14.8867 13.0309L8.90351 19.0139ZM14.63 12.7692C15.1067 12.3017 15.3633 11.6692 15.3633 11C15.3633 10.3308 15.0975 9.69833 14.63 9.23083L8.65333 3.25417C8.3875 2.98833 7.9475 2.98833 7.68167 3.25417C7.41583 3.52 7.41583 3.96 7.68167 4.22583L13.6583 10.2025C14.0983 10.6425 14.0983 11.3575 13.6583 11.7975L7.68167 17.7742C7.41583 18.04 7.41583 18.48 7.68167 18.7458C7.81917 18.8833 7.99333 18.9475 8.1675 18.9475C8.34166 18.9475 8.51583 18.8742 8.65333 18.7458L14.63 12.7692Z" fill="#C0C0C8"/>
</svg>
