<svg width="16" height="17" viewBox="0 0 16 17" fill="none" xmlns="http://www.w3.org/2000/svg">
<path d="M8 15C5.84375 15 3.875 13.875 2.79688 12C1.71875 10.1484 1.71875 7.875 2.79688 6C3.875 4.14844 5.84375 3 8 3C10.1328 3 12.1016 4.14844 13.1797 6C14.2578 7.875 14.2578 10.1484 13.1797 12C12.1016 13.875 10.1328 15 8 15ZM8 6C7.67188 6 7.4375 6.25781 7.4375 6.5625V9.1875C7.4375 9.51562 7.67188 9.75 8 9.75C8.30469 9.75 8.5625 9.51562 8.5625 9.1875V6.5625C8.5625 6.25781 8.30469 6 8 6ZM7.25 11.25C7.25 11.6719 7.57812 12 8 12C8.39844 12 8.75 11.6719 8.75 11.25C8.75 10.8516 8.39844 10.5 8 10.5C7.57812 10.5 7.25 10.8516 7.25 11.25Z" fill="#DA3345"/>
</svg>
