<svg width="20" height="20" viewBox="0 0 20 20" fill="none" xmlns="http://www.w3.org/2000/svg">
<path fill-rule="evenodd" clip-rule="evenodd" d="M2.30753 6.61753H4.09659C4.48954 8.0939 5.83561 9.18163 7.43573 9.18163C9.34398 9.18163 10.8909 7.63471 10.8909 5.7265C10.8909 3.81828 9.34398 2.27137 7.43573 2.27137C5.83561 2.27137 4.48954 3.35909 4.09659 4.83547H2.30753C1.81543 4.83547 1.4165 5.2344 1.4165 5.7265C1.4165 6.2186 1.81543 6.61753 2.30753 6.61753ZM2.30753 6.36752H4.29456C4.29456 6.36752 4.29456 6.36753 4.29456 6.36752H2.30753ZM7.67766 2.53036C9.33474 2.65411 10.6407 4.03778 10.6407 5.72649C10.6407 7.49663 9.20574 8.93162 7.43557 8.93162C7.38823 8.93162 7.34113 8.93059 7.29429 8.92856C7.29977 8.9288 7.30525 8.92902 7.31073 8.92923C7.3522 8.93082 7.39371 8.93162 7.43557 8.93162C7.47743 8.93162 7.51926 8.93083 7.56073 8.92923C9.2315 8.86516 10.5744 7.52224 10.6385 5.8515C10.6401 5.81003 10.6407 5.76835 10.6407 5.72649C10.6407 5.68463 10.6401 5.64297 10.6385 5.6015C10.5759 3.96992 9.29374 2.65096 7.67766 2.53036ZM9.10881 5.7265C9.10881 6.65051 8.35972 7.39958 7.43573 7.39958C6.51172 7.39958 5.76266 6.65051 5.76266 5.7265C5.76266 4.80248 6.51172 4.05342 7.43573 4.05342C8.35972 4.05342 9.10881 4.80249 9.10881 5.7265Z" fill="#8F93A2"/>
<path fill-rule="evenodd" clip-rule="evenodd" d="M12.5639 10.8184C14.1641 10.8184 15.5101 11.9061 15.9031 13.3825H17.6921C18.1842 13.3825 18.5832 13.7814 18.5832 14.2735C18.5832 14.7656 18.1842 15.1645 17.6921 15.1645H15.9031C15.5101 16.6409 14.1641 17.7286 12.5639 17.7286C10.6557 17.7286 9.10881 16.1818 9.10881 14.2735C9.10881 12.3653 10.6557 10.8184 12.5639 10.8184ZM17.7002 14.9145C17.7401 14.914 17.7792 14.9098 17.8171 14.9024C18.1113 14.8442 18.3332 14.5848 18.3332 14.2735C18.3332 13.9623 18.1113 13.7028 17.8171 13.6447C17.802 13.6417 17.7866 13.6392 17.7711 13.6373C18.0878 13.6763 18.3332 13.9463 18.3332 14.2735C18.3332 14.6248 18.0504 14.9101 17.7002 14.9145ZM17.692 14.9145C17.6919 14.9145 17.692 14.9145 17.692 14.9145H15.7048C15.4078 16.3775 14.1144 17.4786 12.5638 17.4786C12.6056 17.4786 12.6475 17.4778 12.6889 17.4762C14.0949 17.4223 15.2686 16.4629 15.6436 15.1645C15.6673 15.0825 15.6876 14.9991 15.7048 14.9145H17.692ZM15.705 13.6325C15.6878 13.5479 15.6673 13.4645 15.6436 13.3825C15.2862 12.145 14.2031 11.2154 12.8851 11.0843C14.2904 11.2241 15.4288 12.2718 15.705 13.6325ZM14.237 14.2735C14.237 15.1975 13.4879 15.9466 12.5639 15.9466C11.64 15.9466 10.8909 15.1975 10.8909 14.2735C10.8909 13.3495 11.64 12.6004 12.5639 12.6004C13.4879 12.6004 14.237 13.3495 14.237 14.2735Z" fill="#8F93A2"/>
<path fill-rule="evenodd" clip-rule="evenodd" d="M2.30753 13.3825C1.81543 13.3825 1.4165 13.7814 1.4165 14.2735C1.4165 14.7656 1.81543 15.1645 2.30753 15.1645H7.43573C7.92783 15.1645 8.32676 14.7656 8.32676 14.2735C8.32676 13.7814 7.92783 13.3825 7.43573 13.3825H2.30753ZM2.30753 14.9145H7.43573C7.47851 14.9145 7.52031 14.9103 7.56073 14.9024C7.85492 14.8442 8.07676 14.5848 8.07676 14.2735C8.07676 13.9623 7.85492 13.7028 7.56073 13.6447C7.54118 13.6408 7.5213 13.6378 7.50114 13.6358C7.82437 13.6686 8.07676 13.9416 8.07676 14.2735C8.07676 14.6275 7.78976 14.9145 7.43573 14.9145H2.30753Z" fill="#8F93A2"/>
<path fill-rule="evenodd" clip-rule="evenodd" d="M12.5639 4.83547C12.0719 4.83547 11.6729 5.2344 11.6729 5.7265C11.6729 6.2186 12.0719 6.61753 12.5639 6.61753H17.6921C18.1842 6.61753 18.5832 6.2186 18.5832 5.7265C18.5832 5.2344 18.1842 4.83547 17.6921 4.83547H12.5639ZM17.7784 5.09123C18.0916 5.13345 18.333 5.40179 18.333 5.72649C18.333 6.07779 18.0504 6.3631 17.7002 6.36748C17.7401 6.36699 17.7792 6.36284 17.8171 6.35534C18.1113 6.29719 18.333 6.03774 18.333 5.72649C18.333 5.41524 18.1113 5.15581 17.8171 5.09765C17.8044 5.09513 17.7915 5.09299 17.7784 5.09123ZM17.6921 6.36752C17.6921 6.36752 17.6922 6.36752 17.6921 6.36752Z" fill="#8F93A2"/>
</svg>
