<svg width="18" height="18" viewBox="0 0 18 18" fill="none" xmlns="http://www.w3.org/2000/svg">
<path d="M15.75 5.0475C15.735 5.0475 15.7125 5.0475 15.69 5.0475C11.7225 4.65 7.7625 4.5 3.84 4.8975L2.31 5.0475C1.995 5.0775 1.7175 4.8525 1.6875 4.5375C1.6575 4.2225 1.8825 3.9525 2.19 3.9225L3.72 3.7725C7.71 3.3675 11.7525 3.525 15.8025 3.9225C16.11 3.9525 16.335 4.23 16.305 4.5375C16.2825 4.83 16.035 5.0475 15.75 5.0475Z" fill="#5B5B67"/>
<path d="M6.375 4.29C6.345 4.29 6.315 4.29 6.2775 4.2825C5.9775 4.23 5.7675 3.9375 5.82 3.6375L5.985 2.655C6.105 1.935 6.27 0.9375 8.0175 0.9375H9.9825C11.7375 0.9375 11.9025 1.9725 12.015 2.6625L12.18 3.6375C12.2325 3.945 12.0225 4.2375 11.7225 4.2825C11.415 4.335 11.1225 4.125 11.0775 3.825L10.9125 2.85C10.8075 2.1975 10.785 2.07 9.99 2.07H8.025C7.23 2.07 7.215 2.175 7.1025 2.8425L6.93 3.8175C6.885 4.095 6.645 4.29 6.375 4.29Z" fill="#5B5B67"/>
<path d="M11.4075 17.0625H6.5925C3.975 17.0625 3.87 15.615 3.7875 14.445L3.3 6.8925C3.2775 6.585 3.5175 6.315 3.825 6.2925C4.14 6.2775 4.4025 6.51 4.425 6.8175L4.9125 14.37C4.995 15.51 5.025 15.9375 6.5925 15.9375H11.4075C12.9825 15.9375 13.0125 15.51 13.0875 14.37L13.575 6.8175C13.5975 6.51 13.8675 6.2775 14.175 6.2925C14.4825 6.315 14.7225 6.5775 14.7 6.8925L14.2125 14.445C14.13 15.615 14.025 17.0625 11.4075 17.0625Z" fill="#5B5B67"/>
<path d="M10.245 12.9375H7.7475C7.44 12.9375 7.185 12.6825 7.185 12.375C7.185 12.0675 7.44 11.8125 7.7475 11.8125H10.245C10.5525 11.8125 10.8075 12.0675 10.8075 12.375C10.8075 12.6825 10.5525 12.9375 10.245 12.9375Z" fill="#5B5B67"/>
<path d="M10.875 9.9375H7.125C6.8175 9.9375 6.5625 9.6825 6.5625 9.375C6.5625 9.0675 6.8175 8.8125 7.125 8.8125H10.875C11.1825 8.8125 11.4375 9.0675 11.4375 9.375C11.4375 9.6825 11.1825 9.9375 10.875 9.9375Z" fill="#5B5B67"/>
</svg>
