<svg width="20" height="20" viewBox="0 0 20 20" fill="none" xmlns="http://www.w3.org/2000/svg">
<path d="M6.49922 13.625C6.5649 13.6744 6.63968 13.7103 6.71926 13.7307C6.79885 13.7512 6.88169 13.7557 6.96303 13.7441C7.04437 13.7325 7.12263 13.705 7.19332 13.6631C7.26401 13.6212 7.32575 13.5658 7.375 13.5C7.75341 12.9955 8.24409 12.5859 8.80819 12.3039C9.3723 12.0218 9.99432 11.875 10.625 11.875C11.2557 11.875 11.8777 12.0218 12.4418 12.3039C13.0059 12.5859 13.4966 12.9955 13.875 13.5C13.9242 13.5657 13.9859 13.621 14.0566 13.6628C14.1272 13.7046 14.2054 13.7321 14.2866 13.7437C14.3679 13.7553 14.4506 13.7508 14.5301 13.7304C14.6096 13.7101 14.6843 13.6742 14.75 13.625C14.8157 13.5758 14.871 13.5141 14.9128 13.4434C14.9546 13.3728 14.9821 13.2946 14.9937 13.2134C15.0053 13.1321 15.0008 13.0494 14.9804 12.9699C14.9601 12.8904 14.9242 12.8157 14.875 12.75C14.3215 12.0081 13.5835 11.4239 12.7344 11.0555C13.1998 10.6306 13.5258 10.0749 13.6697 9.4614C13.8137 8.84789 13.7688 8.2052 13.5409 7.61767C13.313 7.03014 12.9129 6.52523 12.3929 6.1692C11.873 5.81316 11.2575 5.62265 10.6273 5.62265C9.99718 5.62265 9.38173 5.81316 8.86178 6.1692C8.34182 6.52523 7.94166 7.03014 7.71379 7.61767C7.48593 8.2052 7.44102 8.84789 7.58495 9.4614C7.72888 10.0749 8.05493 10.6306 8.52031 11.0555C7.66944 11.4232 6.92977 12.0074 6.375 12.75C6.27546 12.8825 6.23263 13.0491 6.25592 13.2132C6.27922 13.3773 6.36673 13.5254 6.49922 13.625ZM8.75 8.75C8.75 8.37916 8.85997 8.01665 9.06599 7.70831C9.27202 7.39996 9.56486 7.15964 9.90747 7.01773C10.2501 6.87581 10.6271 6.83868 10.9908 6.91103C11.3545 6.98337 11.6886 7.16195 11.9508 7.42417C12.213 7.6864 12.3916 8.02049 12.464 8.38421C12.5363 8.74792 12.4992 9.12492 12.3573 9.46753C12.2154 9.81014 11.975 10.103 11.6667 10.309C11.3584 10.515 10.9958 10.625 10.625 10.625C10.1277 10.625 9.65081 10.4275 9.29917 10.0758C8.94754 9.72419 8.75 9.24728 8.75 8.75ZM16.25 1.875H5C4.66848 1.875 4.35054 2.0067 4.11612 2.24112C3.8817 2.47554 3.75 2.79348 3.75 3.125V5H2.5C2.33424 5 2.17527 5.06585 2.05806 5.18306C1.94085 5.30027 1.875 5.45924 1.875 5.625C1.875 5.79076 1.94085 5.94973 2.05806 6.06694C2.17527 6.18415 2.33424 6.25 2.5 6.25H3.75V9.375H2.5C2.33424 9.375 2.17527 9.44085 2.05806 9.55806C1.94085 9.67527 1.875 9.83424 1.875 10C1.875 10.1658 1.94085 10.3247 2.05806 10.4419C2.17527 10.5592 2.33424 10.625 2.5 10.625H3.75V13.75H2.5C2.33424 13.75 2.17527 13.8158 2.05806 13.9331C1.94085 14.0503 1.875 14.2092 1.875 14.375C1.875 14.5408 1.94085 14.6997 2.05806 14.8169C2.17527 14.9342 2.33424 15 2.5 15H3.75V16.875C3.75 17.2065 3.8817 17.5245 4.11612 17.7589C4.35054 17.9933 4.66848 18.125 5 18.125H16.25C16.5815 18.125 16.8995 17.9933 17.1339 17.7589C17.3683 17.5245 17.5 17.2065 17.5 16.875V3.125C17.5 2.79348 17.3683 2.47554 17.1339 2.24112C16.8995 2.0067 16.5815 1.875 16.25 1.875ZM16.25 16.875H5V3.125H16.25V16.875Z" fill="#5F5F6E"/>
</svg>
