<svg width="22" height="22" viewBox="0 0 22 22" fill="none" xmlns="http://www.w3.org/2000/svg">
<path fill-rule="evenodd" clip-rule="evenodd" d="M2.75 11C2.75 10.4305 3.21171 9.96875 3.78125 9.96875H18.2188C18.7883 9.96875 19.25 10.4305 19.25 11C19.25 11.5695 18.7883 12.0312 18.2188 12.0312H3.78125C3.21171 12.0312 2.75 11.5695 2.75 11Z" fill="#5F5F6E"/>
<path fill-rule="evenodd" clip-rule="evenodd" d="M11.7292 3.05205C12.1319 3.45477 12.1319 4.10773 11.7292 4.51045L5.23966 11L11.7292 17.4895C12.1319 17.8923 12.1319 18.5452 11.7292 18.948C11.3265 19.3507 10.6735 19.3507 10.2708 18.948L3.05205 11.7292C2.64932 11.3265 2.64932 10.6735 3.05205 10.2708L10.2708 3.05205C10.6735 2.64932 11.3265 2.64932 11.7292 3.05205Z" fill="#5F5F6E"/>
</svg>
