<svg width="20" height="20" viewBox="0 0 20 20" fill="none" xmlns="http://www.w3.org/2000/svg">
<path d="M10 14.4583C10.7502 14.4583 11.3583 13.8502 11.3583 13.1C11.3583 12.3498 10.7502 11.7417 10 11.7417C9.24981 11.7417 8.64167 12.3498 8.64167 13.1C8.64167 13.8502 9.24981 14.4583 10 14.4583Z" fill="#828292"/>
<path d="M15.2333 7.94167V6.9C15.2333 4.65 14.6917 1.66667 10 1.66667C5.30833 1.66667 4.76667 4.65 4.76667 6.9V7.94167C2.43333 8.23333 1.66667 9.41667 1.66667 12.325V13.875C1.66667 17.2917 2.70833 18.3333 6.125 18.3333H13.875C17.2917 18.3333 18.3333 17.2917 18.3333 13.875V12.325C18.3333 9.41667 17.5667 8.23333 15.2333 7.94167ZM10 15.6167C8.60833 15.6167 7.48333 14.4833 7.48333 13.1C7.48333 11.7083 8.61667 10.5833 10 10.5833C11.3833 10.5833 12.5167 11.7167 12.5167 13.1C12.5167 14.4917 11.3917 15.6167 10 15.6167ZM6.125 7.86667C6.05833 7.86667 6 7.86667 5.93333 7.86667V6.9C5.93333 4.45833 6.625 2.83333 10 2.83333C13.375 2.83333 14.0667 4.45833 14.0667 6.9V7.875C14 7.875 13.9417 7.875 13.875 7.875H6.125V7.86667Z" fill="#828292"/>
</svg>
