<svg width="14" height="14" viewBox="0 0 14 14" fill="none" xmlns="http://www.w3.org/2000/svg">
<g clip-path="url(#clip0_1_175)">
<path d="M7.01167 12.25C2.6075 12.25 0.163333 7.46667 0.0641659 7.2625C-0.0233341 7.09333 -0.0175007 6.895 0.0699993 6.72583C0.839999 5.29083 1.89 4.06 3.17917 3.07417C3.43583 2.87583 3.80333 2.92833 3.99583 3.185C4.18833 3.44167 4.14167 3.80917 3.885 4.00167C2.80583 4.82417 1.91917 5.83333 1.24833 7.00583C1.79667 7.945 3.86167 11.0892 7 11.0892C8.12583 11.0717 9.205 10.6983 10.1092 10.0042C10.3658 9.81167 10.7333 9.85833 10.9258 10.115C11.1183 10.3717 11.0717 10.7392 10.815 10.9317C9.7125 11.7717 8.39417 12.2325 7.00583 12.25H7.01167ZM12.1567 9.44417C12.0225 9.44417 11.8883 9.3975 11.7833 9.31C11.5383 9.1 11.5033 8.7325 11.7133 8.4875C12.1042 8.02667 12.4542 7.525 12.7517 7C12.2033 6.06083 10.1383 2.91667 7 2.91667H6.98833C6.62083 2.91667 6.25917 2.9575 5.90917 3.03917C5.59417 3.115 5.27917 2.91667 5.20917 2.60167C5.13333 2.28667 5.33167 1.97167 5.64667 1.90167C6.09 1.79667 6.52167 1.75 7.00583 1.74417C11.3983 1.74417 13.8425 6.5275 13.9417 6.73167C14.0233 6.90083 14.0233 7.09917 13.9358 7.26833C13.5625 7.9625 13.1133 8.6275 12.6058 9.22833C12.4892 9.3625 12.3258 9.43833 12.1567 9.43833V9.44417ZM6.95333 9.37417C6.38167 9.37417 5.81 9.17 5.36083 8.75C4.90583 8.32417 4.64333 7.74667 4.62 7.1225C4.59667 6.49833 4.81833 5.90333 5.24417 5.44833C5.27917 5.4075 5.32 5.3725 5.36083 5.33167C5.59417 5.11 5.9675 5.12167 6.18333 5.36083C6.405 5.59417 6.39333 5.9675 6.15417 6.18333C6.13667 6.20083 6.11333 6.21833 6.09583 6.24167C5.88 6.46917 5.76917 6.76667 5.78083 7.08167C5.7925 7.39083 5.92083 7.6825 6.14833 7.8925C6.62083 8.33 7.36167 8.30667 7.79917 7.83417C8.02083 7.60083 8.38833 7.58333 8.62167 7.805C8.855 8.02667 8.8725 8.39417 8.65083 8.6275C8.19 9.1175 7.56583 9.36833 6.94167 9.36833L6.95333 9.37417Z" fill="#5F5F6E"/>
<path d="M13.4167 14C13.265 14 13.1192 13.9417 13.0025 13.8308L0.169166 0.9975C-0.0583341 0.77 -0.0583341 0.396667 0.169166 0.169167C0.396666 -0.0583332 0.769999 -0.0583332 0.997499 0.169167L13.8308 13.0025C14.0583 13.23 14.0583 13.5975 13.8308 13.825C13.7142 13.9417 13.5683 13.9942 13.4167 13.9942V14Z" fill="#5F5F6E"/>
</g>
<defs>
<clipPath id="clip0_1_175">
<rect width="14" height="14" fill="white"/>
</clipPath>
</defs>
</svg>
