<svg width="32" height="34" viewBox="0 0 32 34" fill="none" xmlns="http://www.w3.org/2000/svg">
<path fill-rule="evenodd" clip-rule="evenodd" d="M15.6349 15.3726C17.8166 14.0093 20.4142 13.7326 22.9812 14.3777C25.5097 15.0129 28.0096 16.5527 30.0239 18.8296C31.2442 20.2088 31.7367 22.0087 31.2959 23.7883C30.8549 25.5683 29.5738 26.8765 27.7844 27.2694C25.1255 27.8533 22.6922 29.3738 21.0018 31.5077C19.8642 32.9436 18.1267 33.5217 16.3336 33.1377C14.5409 32.7538 13.1391 31.5221 12.4344 29.8208C11.271 27.0122 10.9829 24.0903 11.5203 21.5392C12.066 18.9492 13.4533 16.7358 15.6349 15.3726ZM0.892102 20.1702C0.0903016 21.0581 -0.156459 22.2631 0.0933335 23.4932C0.576225 25.8717 2.84039 27.9157 5.25494 28.1544C6.502 28.2777 7.674 27.9106 8.47572 27.024C9.27865 26.148 9.52376 24.9215 9.27576 23.6997C8.7929 21.3212 6.5286 19.2771 4.11412 19.0384C2.8664 18.9152 1.69383 19.2826 0.892102 20.1702ZM23.9803 6.62469C23.1365 8.89953 23.9809 11.8305 25.9071 13.3073C26.8952 14.0648 28.1083 14.3841 29.2456 14.0455C30.3939 13.7136 31.2377 12.8211 31.6735 11.6462C32.5173 9.37177 31.6728 6.44042 29.7467 4.96366C28.7507 4.19998 27.5597 3.89336 26.4103 4.22476C25.2604 4.57099 24.4201 5.43923 23.9803 6.62469ZM3.77471 7.04929C4.93589 6.32371 6.36431 6.33149 7.73505 6.93051C10.3752 8.08438 12.3483 11.2421 12.2281 14.1208C12.0932 17.349 9.38554 19.041 6.42491 17.747C3.78478 16.5931 1.81164 13.4355 1.93191 10.5567C1.99431 9.06208 2.61353 7.77488 3.77471 7.04929ZM13.3533 1.06395C14.5145 0.338359 15.9429 0.346142 17.3136 0.945197C19.9537 2.09907 21.9268 5.25674 21.8066 8.1355C21.6717 11.3637 18.9641 13.0556 16.0034 11.7617C13.3633 10.6078 11.3901 7.45016 11.5104 4.5714C11.5729 3.07674 12.1921 1.78953 13.3533 1.06395Z" fill="white" fill-opacity="0.7"/>
</svg>
