<svg width="28" height="28" viewBox="0 0 28 28" fill="none" xmlns="http://www.w3.org/2000/svg">
<path d="M10.1825 5.28814C10.5257 4.94796 10.5282 4.39395 10.188 4.05072C9.84785 3.70749 9.29384 3.70501 8.95061 4.04519L7.26928 5.71159C6.64373 6.33154 6.12202 6.84859 5.75003 7.31178C5.35987 7.79761 5.0631 8.3082 4.98381 8.93026C4.88706 9.6893 5.51655 10.2083 6.12656 10.2083H22.1667C22.6499 10.2083 23.0417 9.81658 23.0417 9.33333C23.0417 8.85009 22.6499 8.45833 22.1667 8.45833H7.07431C7.08724 8.44175 7.10063 8.42483 7.11449 8.40757C7.41678 8.03117 7.86636 7.58372 8.53707 6.91896L10.1825 5.28814Z" fill="#323339"/>
<path d="M5.83334 17.7917C5.35009 17.7917 4.95834 18.1834 4.95834 18.6667C4.95834 19.1499 5.35009 19.5417 5.83334 19.5417H21.1593C21.1464 19.5583 21.133 19.5752 21.1191 19.5924C20.8169 19.9688 20.3673 20.4163 19.6966 21.081L18.0511 22.7119C17.7079 23.052 17.7054 23.6061 18.0456 23.9493C18.3858 24.2925 18.9398 24.295 19.283 23.9548L20.9644 22.2884C21.5899 21.6685 22.1116 21.1514 22.4836 20.6882C22.8738 20.2024 23.1705 19.6918 23.2498 19.0697C23.2533 19.0426 23.2564 19.0155 23.2591 18.9883C23.3305 18.285 22.7523 17.7917 22.1667 17.7917H5.83334Z" fill="#323339"/>
</svg>
