<svg width="16" height="16" viewBox="0 0 16 16" fill="none" xmlns="http://www.w3.org/2000/svg">
<path d="M13.8067 5.41333V11.6867C13.8067 13.3267 12.4667 14.6667 10.8267 14.6667H5.17333C3.53333 14.6667 2.19333 13.3267 2.19333 11.6867V5.41333C2.19333 4.27333 2.83333 3.28 3.77333 2.78C4.1 2.60667 4.50667 2.84 4.50667 3.21333C4.50667 4.27333 5.37333 5.14 6.43333 5.14H9.56667C10.6267 5.14 11.4933 4.27333 11.4933 3.21333C11.4933 2.84 11.8933 2.60667 12.2267 2.78C13.1667 3.28 13.8067 4.27333 13.8067 5.41333Z" fill="#79E5FF"/>
<path d="M9.56667 1.33333H6.43333C5.74 1.33333 5.17333 1.89333 5.17333 2.58667V3.21333C5.17333 3.90667 5.73333 4.46667 6.42667 4.46667H9.56667C10.26 4.46667 10.82 3.90667 10.82 3.21333V2.58667C10.8267 1.89333 10.26 1.33333 9.56667 1.33333Z" fill="#79E5FF"/>
</svg>
