<svg width="18" height="18" viewBox="0 0 18 18" fill="none" xmlns="http://www.w3.org/2000/svg">
<path fill-rule="evenodd" clip-rule="evenodd" d="M15.6988 2.66662C15.6661 2.5876 15.6177 2.51352 15.5537 2.44914C15.5528 2.44818 15.5518 2.44723 15.5509 2.44627C15.4288 2.32496 15.2607 2.25 15.075 2.25H15.0749H11.025C10.6522 2.25 10.35 2.55221 10.35 2.925C10.35 3.29779 10.6522 3.6 11.025 3.6H13.4454L7.1727 9.8727C6.9091 10.1363 6.9091 10.5637 7.1727 10.8273C7.43631 11.0909 7.86369 11.0909 8.1273 10.8273L14.4 4.55459V6.975C14.4 7.34779 14.7022 7.65 15.075 7.65C15.4478 7.65 15.75 7.34779 15.75 6.975V2.92547C15.75 2.92464 15.75 2.92381 15.75 2.92298C15.7497 2.83572 15.7327 2.74851 15.6988 2.66662ZM4.275 5.625C4.09598 5.625 3.92429 5.69612 3.7977 5.8227C3.67112 5.94929 3.6 6.12098 3.6 6.3V13.725C3.6 13.904 3.67112 14.0757 3.7977 14.2023C3.92429 14.3289 4.09598 14.4 4.275 14.4H11.7C11.879 14.4 12.0507 14.3289 12.1773 14.2023C12.3039 14.0757 12.375 13.904 12.375 13.725V9.675C12.375 9.30221 12.6772 9 13.05 9C13.4228 9 13.725 9.30221 13.725 9.675V13.725C13.725 14.2621 13.5117 14.7771 13.1319 15.1569C12.7521 15.5367 12.2371 15.75 11.7 15.75H4.275C3.73794 15.75 3.22287 15.5367 2.84311 15.1569C2.46335 14.7771 2.25 14.2621 2.25 13.725V6.3C2.25 5.76294 2.46335 5.24787 2.84311 4.86811C3.22287 4.48835 3.73794 4.275 4.275 4.275H8.325C8.69779 4.275 9 4.57721 9 4.95C9 5.32279 8.69779 5.625 8.325 5.625H4.275Z" fill="#07C5F0"/>
</svg>
