<svg width="18" height="19" viewBox="0 0 18 19" fill="none" xmlns="http://www.w3.org/2000/svg">
<path d="M15.75 17H2.25C1.9425 17 1.6875 16.745 1.6875 16.4375C1.6875 16.13 1.9425 15.875 2.25 15.875H15.75C16.0575 15.875 16.3125 16.13 16.3125 16.4375C16.3125 16.745 16.0575 17 15.75 17Z" fill="#6B6B7A"/>
<path d="M14.265 3.10926C12.81 1.65426 11.385 1.61676 9.89249 3.10926L8.98499 4.01676C8.90999 4.09176 8.87999 4.21176 8.90999 4.31676C9.47999 6.30426 11.07 7.89426 13.0575 8.46426C13.0875 8.47176 13.1175 8.47926 13.1475 8.47926C13.23 8.47926 13.305 8.44926 13.365 8.38926L14.265 7.48176C15.0075 6.74676 15.3675 6.03426 15.3675 5.31426C15.375 4.57176 15.015 3.85176 14.265 3.10926Z" fill="#6B6B7A"/>
<path d="M11.7075 9.14711C11.49 9.04211 11.28 8.93711 11.0775 8.81711C10.9125 8.71961 10.755 8.61461 10.5975 8.50211C10.47 8.41961 10.32 8.29961 10.1775 8.17961C10.1625 8.17211 10.11 8.12711 10.05 8.06711C9.8025 7.85711 9.525 7.58711 9.2775 7.28711C9.255 7.27211 9.2175 7.21961 9.165 7.15211C9.09 7.06211 8.9625 6.91211 8.85 6.73961C8.76 6.62711 8.65499 6.46211 8.5575 6.29711C8.4375 6.09461 8.3325 5.89211 8.2275 5.68211C8.08983 5.38711 7.70264 5.29947 7.47244 5.52966L3.255 9.74711C3.1575 9.84461 3.06749 10.0321 3.04499 10.1596L2.63999 13.0321C2.56499 13.5421 2.7075 14.0221 3.0225 14.3446C3.2925 14.6071 3.66749 14.7496 4.07249 14.7496C4.16249 14.7496 4.2525 14.7421 4.3425 14.7271L7.2225 14.3221C7.3575 14.2996 7.545 14.2096 7.635 14.1121L11.8594 9.8877C12.085 9.66211 12.0002 9.27396 11.7075 9.14711Z" fill="#6B6B7A"/>
</svg>
