<svg width="18" height="18" viewBox="0 0 18 18" fill="none" xmlns="http://www.w3.org/2000/svg">
<path d="M11.25 1.6875C10.9393 1.6875 10.6875 1.93934 10.6875 2.25C10.6875 2.56066 10.9393 2.8125 11.25 2.8125H12C13.7604 2.8125 15.1875 4.23959 15.1875 6V6.75C15.1875 7.06066 15.4393 7.3125 15.75 7.3125C16.0607 7.3125 16.3125 7.06066 16.3125 6.75V6C16.3125 3.61827 14.3817 1.6875 12 1.6875H11.25Z" fill="#5F5F6E"/>
<path d="M6 1.6875C3.61827 1.6875 1.6875 3.61827 1.6875 6V6.75C1.6875 7.06066 1.93934 7.3125 2.25 7.3125C2.56066 7.3125 2.8125 7.06066 2.8125 6.75V6C2.8125 4.23959 4.23959 2.8125 6 2.8125H6.75C7.06066 2.8125 7.3125 2.56066 7.3125 2.25C7.3125 1.93934 7.06066 1.6875 6.75 1.6875H6Z" fill="#5F5F6E"/>
<path d="M0.75 9.9375C0.43934 9.9375 0.1875 10.1893 0.1875 10.5C0.1875 10.8107 0.43934 11.0625 0.75 11.0625H1.71951C1.69878 11.1211 1.6875 11.1843 1.6875 11.25V12C1.6875 14.3817 3.61827 16.3125 6 16.3125H6.75C7.06066 16.3125 7.3125 16.0607 7.3125 15.75C7.3125 15.4393 7.06066 15.1875 6.75 15.1875H6C4.23959 15.1875 2.8125 13.7604 2.8125 12V11.25C2.8125 11.1843 2.80122 11.1211 2.78049 11.0625H15.2195C15.1988 11.1211 15.1875 11.1843 15.1875 11.25V12C15.1875 13.7604 13.7604 15.1875 12 15.1875H11.25C10.9393 15.1875 10.6875 15.4393 10.6875 15.75C10.6875 16.0607 10.9393 16.3125 11.25 16.3125H12C14.3817 16.3125 16.3125 14.3817 16.3125 12V11.25C16.3125 11.1843 16.3012 11.1211 16.2805 11.0625H17.25C17.5607 11.0625 17.8125 10.8107 17.8125 10.5C17.8125 10.1893 17.5607 9.9375 17.25 9.9375H0.75Z" fill="#5F5F6E"/>
</svg>
