<svg width="16" height="16" viewBox="0 0 16 16" fill="none" xmlns="http://www.w3.org/2000/svg">
<path d="M7.39998 15.1667H4.59998C1.99331 15.1667 0.833313 14.0067 0.833313 11.4V8.6C0.833313 5.99334 1.99331 4.83334 4.59998 4.83334H7.39998C10.0066 4.83334 11.1666 5.99334 11.1666 8.6V11.4C11.1666 14.0067 10.0066 15.1667 7.39998 15.1667ZM4.59998 5.83334C2.53331 5.83334 1.83331 6.53334 1.83331 8.6V11.4C1.83331 13.4667 2.53331 14.1667 4.59998 14.1667H7.39998C9.46665 14.1667 10.1666 13.4667 10.1666 11.4V8.6C10.1666 6.53334 9.46665 5.83334 7.39998 5.83334H4.59998V5.83334Z" fill="#5B5B67"/>
<path d="M11.4 11.1667H10.6666C10.3933 11.1667 10.1666 10.94 10.1666 10.6667V8.6C10.1666 6.53334 9.46665 5.83334 7.39998 5.83334H5.33331C5.05998 5.83334 4.83331 5.60667 4.83331 5.33334V4.6C4.83331 1.99334 5.99331 0.833336 8.59998 0.833336H11.4C14.0066 0.833336 15.1666 1.99334 15.1666 4.6V7.4C15.1666 10.0067 14.0066 11.1667 11.4 11.1667ZM11.1666 10.1667H11.4C13.4666 10.1667 14.1666 9.46667 14.1666 7.4V4.6C14.1666 2.53334 13.4666 1.83334 11.4 1.83334H8.59998C6.53331 1.83334 5.83331 2.53334 5.83331 4.6V4.83334H7.39998C10.0066 4.83334 11.1666 5.99334 11.1666 8.6V10.1667Z" fill="#5B5B67"/>
</svg>
