<svg width="18" height="18" viewBox="0 0 18 18" fill="none" xmlns="http://www.w3.org/2000/svg">
<path d="M10.0574 14.6257C9.74676 14.6257 9.49492 14.8775 9.49492 15.1882C9.49492 15.4989 9.74676 15.7507 10.0574 15.7507H14.5574C14.8681 15.7507 15.1199 15.4989 15.1199 15.1882C15.1199 14.8775 14.8681 14.6257 14.5574 14.6257H10.0574Z" fill="#07C5F0"/>
<path d="M10.653 3.43156L10.7205 3.47055C11.3041 3.80747 11.7908 4.08841 12.1471 4.36339C12.5232 4.65364 12.8217 4.98678 12.9468 5.45342C13.0718 5.92006 12.9798 6.35783 12.7992 6.79725C12.6739 7.10225 12.4896 7.44499 12.2675 7.83594L11.791 7.55273L11.7848 7.54913L6.59085 4.55039L6.10512 4.26411C6.33018 3.88079 6.53297 3.55339 6.73262 3.29468C7.02286 2.91857 7.35601 2.62005 7.82265 2.49501C8.28928 2.36998 8.72706 2.46193 9.16647 2.64253C9.58278 2.81363 10.0694 3.09461 10.653 3.43156Z" fill="#07C5F0"/>
<path d="M5.54155 5.23781L2.93307 9.75574C2.70973 10.1418 2.53314 10.4471 2.46771 10.7944C2.40228 11.1416 2.45567 11.4903 2.5232 11.9312L2.54139 12.0503C2.66603 12.8689 2.76876 13.5435 2.92371 14.0552C3.08577 14.5902 3.33488 15.0534 3.82484 15.3362C4.31479 15.6191 4.84044 15.6033 5.38485 15.4761C5.9054 15.3545 6.54105 15.1061 7.31222 14.8048L7.42453 14.761C7.84013 14.599 8.16874 14.4709 8.43676 14.2406C8.70478 14.0103 8.88087 13.7048 9.10357 13.3183L11.7059 8.81087L11.2192 8.52163L6.0218 5.52089L5.54155 5.23781Z" fill="#07C5F0"/>
</svg>
