<svg width="18" height="18" viewBox="0 0 18 18" fill="none" xmlns="http://www.w3.org/2000/svg">
<path d="M12.375 9C11.3627 9 10.4568 9.44768 9.83834 10.1536L7.69608 8.83511C7.80576 8.53406 7.87511 8.21376 7.87511 7.87491C7.87511 7.65353 7.84337 7.44055 7.79495 7.23333L10.6426 5.91929C11.055 6.42251 11.6735 6.74989 12.3752 6.74989C13.6172 6.74989 14.6251 5.74247 14.6251 4.49995C14.6251 3.25742 13.617 2.25 12.375 2.25C11.132 2.25 10.1251 3.25742 10.1251 4.49995C10.1251 4.63715 10.1421 4.76962 10.165 4.9004L7.32074 6.21328C6.80826 5.51834 5.99137 5.06239 5.06255 5.06239C3.50903 5.06255 2.25 6.32142 2.25 7.87494C2.25 9.42847 3.50903 10.6875 5.06255 10.6875C5.87104 10.6875 6.59515 10.3414 7.10815 9.79431L9.24723 11.1106C9.08892 11.5016 9 11.9273 9 12.375C9 14.2394 10.5106 15.75 12.375 15.75C14.2383 15.75 15.75 14.2394 15.75 12.375C15.75 10.5106 14.2383 9 12.375 9Z" fill="#5B5B67"/>
</svg>
