<svg width="20" height="20" viewBox="0 0 20 20" fill="none" xmlns="http://www.w3.org/2000/svg">
<path d="M10.625 2.5C10.625 2.15482 10.3452 1.875 9.99999 1.875C9.65481 1.875 9.37499 2.15482 9.37499 2.5V13.1754C9.10611 12.9025 8.78645 12.5009 8.32127 11.9142L7.15639 10.445C6.94194 10.1746 6.54882 10.1291 6.27835 10.3436C6.00788 10.5581 5.96246 10.9512 6.17692 11.2216L7.36546 12.7206C7.80978 13.281 8.17642 13.7435 8.50459 14.0729C8.84135 14.411 9.21512 14.6912 9.69276 14.7673C9.79452 14.7835 9.89717 14.7917 9.99999 14.7917C10.1028 14.7917 10.2055 14.7835 10.3072 14.7673C10.7849 14.6912 11.1586 14.411 11.4954 14.0729C11.8236 13.7435 12.1902 13.281 12.6345 12.7206L13.8231 11.2216C14.0375 10.9512 13.9921 10.5581 13.7216 10.3436C13.4512 10.1291 13.058 10.1746 12.8436 10.445L11.6787 11.9142C11.2135 12.5009 10.8939 12.9025 10.625 13.1754V2.5Z" fill="#5F5F6E"/>
<path d="M17.1667 8.79131C16.9594 8.51531 16.5676 8.45963 16.2916 8.66694C16.0156 8.87424 15.9599 9.26603 16.1672 9.54203C16.6118 10.1339 16.875 10.8686 16.875 11.6667V12.5C16.875 13.2981 16.8731 13.6243 16.8314 13.8874C16.5914 15.4028 15.4028 16.5914 13.8874 16.8314C13.6243 16.8731 13.298 16.875 12.5 16.875H7.49999C6.70194 16.875 6.37568 16.8731 6.11262 16.8314C4.59717 16.5914 3.40862 15.4028 3.1686 13.8874C3.12693 13.6243 3.12499 13.2981 3.12499 12.5V11.6667C3.12499 10.8686 3.38818 10.1339 3.83275 9.54203C4.04006 9.26603 3.98437 8.87424 3.70838 8.66694C3.43239 8.45963 3.0406 8.51531 2.83329 8.79131C2.23171 9.59221 1.87499 10.5887 1.87499 11.6667L1.87499 12.5673C1.87493 13.2774 1.8749 13.7099 1.93399 14.0829C2.25872 16.1332 3.86676 17.7413 5.91708 18.066C6.29014 18.1251 6.72263 18.1251 7.43266 18.125H12.5673C13.2773 18.1251 13.7098 18.1251 14.0829 18.066C16.1332 17.7413 17.7413 16.1332 18.066 14.0829C18.1251 13.7098 18.125 13.2774 18.125 12.5673L18.125 11.6667C18.125 10.5887 17.7683 9.59221 17.1667 8.79131Z" fill="#5F5F6E"/>
</svg>
