<svg width="28" height="28" viewBox="0 0 28 28" fill="none" xmlns="http://www.w3.org/2000/svg">
<path d="M20.3813 13.6347C20.0196 13.6347 19.6929 13.5064 19.4596 13.2731C19.2379 13.0514 19.1329 12.7597 19.1329 12.4214C19.1329 12.0947 19.2379 11.7914 19.4596 11.5697C19.6929 11.3364 20.0196 11.2081 20.3813 11.2081C20.7429 11.2081 21.0696 11.3364 21.3029 11.5697C21.5246 11.7914 21.6296 12.0831 21.6296 12.4214C21.6296 12.7481 21.5246 13.0514 21.3029 13.2731C21.0696 13.5064 20.7429 13.6347 20.3813 13.6347Z" fill="#323339"/>
<path d="M10.6747 16.0264C7.05807 16.0264 4.1064 13.0747 4.1064 9.45808C4.1064 5.84142 7.05807 2.88975 10.6747 2.88975C14.2914 2.88975 17.2431 5.84142 17.2431 9.45808C17.2431 13.0747 14.3031 16.0264 10.6747 16.0264ZM10.6747 4.46475C7.9214 4.46475 5.6814 6.70475 5.6814 9.45808C5.6814 12.2114 7.9214 14.4514 10.6747 14.4514C13.4281 14.4514 15.6681 12.2114 15.6681 9.45808C15.6681 6.70475 13.4281 4.46475 10.6747 4.46475Z" fill="#323339"/>
<path d="M26.5882 12.2347C26.4249 12.0597 26.1915 11.9664 25.9465 11.9664H25.8065C25.6899 11.9897 25.5615 12.0014 25.4332 12.0014C25.1882 12.0014 24.9315 11.978 24.7799 11.943C24.6865 11.6864 24.5815 11.3714 24.4415 11.0447L24.3715 10.893C24.1965 10.4614 24.0099 10.018 23.7065 9.63305L24.0565 8.22138C24.2432 7.48638 24.0099 6.71638 23.4499 6.20305C22.8899 5.68971 22.1082 5.52638 21.3849 5.77138L19.1799 6.52971C18.7249 6.68138 18.4799 7.18305 18.6315 7.63805C18.7832 8.09305 19.2849 8.33805 19.7399 8.18638L21.9449 7.42805C22.0965 7.36971 22.2015 7.45138 22.2599 7.49805C22.3065 7.54471 22.3882 7.64971 22.3532 7.80138L21.9215 9.52805C21.9099 9.58638 21.9215 9.65638 21.9215 9.71471C21.8632 9.98305 21.9449 10.298 22.1665 10.5897C22.1665 10.5897 22.5632 11.1847 22.7849 11.733C22.9015 12.013 23.0065 12.293 23.0765 12.5147C23.1232 12.643 23.1582 12.7714 23.1699 12.853L23.1932 12.923C23.2632 13.2614 23.5082 13.5297 23.8465 13.623C24.1965 13.7164 24.5699 13.763 25.0132 13.7864L24.9549 15.268C24.4999 15.688 24.0099 15.8864 23.4382 16.1314C23.1465 16.248 22.8432 16.3764 22.5165 16.5397C22.3649 16.6214 22.2249 16.7497 22.1199 16.913C21.4782 17.963 21.0115 18.313 20.1249 18.9897C19.8332 19.2114 19.7049 19.5847 19.7982 19.9347L20.0315 20.798C20.1015 21.078 20.0432 21.3697 19.8682 21.6031C19.6932 21.8364 19.4249 21.9647 19.1332 21.9647C18.6782 21.9647 18.3049 21.638 18.2232 21.1947L18.1415 20.7047C18.0715 20.2847 17.6982 19.9697 17.1849 19.9697C16.2282 20.0397 15.2482 20.0747 14.2915 20.0747C13.3349 20.0747 12.3665 20.0397 11.2932 19.9697C10.8149 19.9697 10.4182 20.343 10.3949 20.833V21.0897C10.3482 21.568 9.93988 21.9414 9.42654 21.9414C9.13488 21.9414 8.86654 21.8014 8.67988 21.568C8.50488 21.3347 8.44654 21.043 8.51654 20.763C8.62154 20.3664 8.72654 19.9814 8.83154 19.6314C8.95988 19.2464 8.78488 18.8147 8.41154 18.593C7.52488 18.068 7.03488 17.4847 6.81321 16.703C6.70821 16.318 6.35821 16.0497 5.94988 16.0497C5.86821 16.0497 5.78654 16.0497 5.70488 16.0847C5.47154 16.143 5.28488 16.2947 5.16821 16.5047C5.05154 16.7147 5.01654 16.948 5.08654 17.1814C5.35488 18.1614 5.99654 19.0364 6.95321 19.748L6.87154 20.028C6.62654 20.903 6.80154 21.8247 7.34988 22.5597C7.89821 23.2947 8.74988 23.7264 9.67154 23.7264H9.79988C10.9199 23.7264 11.9232 22.8514 12.0982 21.7781C12.7982 21.8131 13.5099 21.8364 14.2449 21.8364C14.9799 21.8364 15.7382 21.8131 16.5082 21.7781C16.7882 22.9214 17.8032 23.7381 18.9932 23.7381H19.0049C19.8799 23.7381 20.6849 23.3297 21.2215 22.6414C21.7582 21.953 21.9332 21.0547 21.7115 20.2147L21.6649 20.028C22.3532 19.4797 22.9365 18.9197 23.4382 18.0914C23.6249 18.0097 23.8115 17.928 24.0215 17.8464C24.8032 17.543 25.6782 17.193 26.5065 16.2597C26.6349 16.108 26.7165 15.9097 26.7282 15.7114L26.8332 12.8997C26.8332 12.6547 26.7515 12.4214 26.5882 12.2464V12.2347Z" fill="#323339"/>
</svg>
