<svg width="20" height="20" viewBox="0 0 20 20" fill="none" xmlns="http://www.w3.org/2000/svg">
<path d="M9.66836 14.086L11.6397 6.98922C11.74 6.62808 11.5286 6.25389 11.1674 6.15358C10.8063 6.05326 10.4321 6.2647 10.3318 6.6259L8.36039 13.7227C8.26007 14.0839 8.47153 14.458 8.83271 14.5583C8.89381 14.5753 8.95495 14.5833 9.01488 14.5833C9.31228 14.5833 9.585 14.3861 9.66836 14.086Z" fill="#07C5F0"/>
<path d="M4.7806 6.37372C5.02023 6.08549 5.4482 6.04611 5.73645 6.28585C6.02462 6.52547 6.06403 6.9535 5.82437 7.24183L3.2291 10.3629L5.82349 13.4695C6.06376 13.7572 6.02531 14.1853 5.73756 14.4255C5.61044 14.5317 5.45647 14.5833 5.30293 14.5833C5.10822 14.5833 4.91571 14.5003 4.78149 14.3396L1.82449 10.7988C1.61445 10.5473 1.61407 10.1817 1.8236 9.92969L4.7806 6.37372Z" fill="#07C5F0"/>
<path d="M15.3674 6.37372C15.1277 6.08549 14.6998 6.04611 14.4115 6.28585C14.1234 6.52547 14.084 6.9535 14.3236 7.24183L16.9189 10.3629L14.3245 13.4695C14.0842 13.7572 14.1227 14.1853 14.4104 14.4255C14.5375 14.5317 14.6915 14.5833 14.845 14.5833C15.0398 14.5833 15.2323 14.5003 15.3665 14.3396L18.3235 10.7988C18.5335 10.5473 18.5339 10.1817 18.3244 9.92969L15.3674 6.37372Z" fill="#07C5F0"/>
</svg>
