<svg width="18" height="18" viewBox="0 0 18 18" fill="none" xmlns="http://www.w3.org/2000/svg">
<path d="M9.5625 3C9.5625 2.68934 9.31066 2.4375 9 2.4375C8.68934 2.4375 8.4375 2.68934 8.4375 3L8.4375 8.4375H3C2.68934 8.4375 2.4375 8.68934 2.4375 9C2.4375 9.31066 2.68934 9.5625 3 9.5625H8.4375V15C8.4375 15.3107 8.68934 15.5625 9 15.5625C9.31066 15.5625 9.5625 15.3107 9.5625 15V9.5625H15C15.3107 9.5625 15.5625 9.31066 15.5625 9C15.5625 8.68934 15.3107 8.4375 15 8.4375H9.5625L9.5625 3Z" fill="#323339"/>
</svg>
