<svg width="26" height="26" viewBox="0 0 26 26" fill="none" xmlns="http://www.w3.org/2000/svg">
<path d="M8.9375 12.1875H6.5C4.70762 12.1875 3.25 10.7299 3.25 8.9375V6.5C3.25 4.70762 4.70762 3.25 6.5 3.25H8.9375C10.7299 3.25 12.1875 4.70762 12.1875 6.5V8.9375C12.1875 10.7299 10.7299 12.1875 8.9375 12.1875ZM6.5 5.6875C6.05231 5.6875 5.6875 6.05231 5.6875 6.5V8.9375C5.6875 9.38519 6.05231 9.75 6.5 9.75H8.9375C9.38519 9.75 9.75 9.38519 9.75 8.9375V6.5C9.75 6.05231 9.38519 5.6875 8.9375 5.6875H6.5ZM19.5 12.1875H17.0625C15.2701 12.1875 13.8125 10.7299 13.8125 8.9375V6.5C13.8125 4.70762 15.2701 3.25 17.0625 3.25H19.5C21.2924 3.25 22.75 4.70762 22.75 6.5V8.9375C22.75 10.7299 21.2924 12.1875 19.5 12.1875ZM17.0625 5.6875C16.614 5.6875 16.25 6.05231 16.25 6.5V8.9375C16.25 9.38519 16.614 9.75 17.0625 9.75H19.5C19.9485 9.75 20.3125 9.38519 20.3125 8.9375V6.5C20.3125 6.05231 19.9485 5.6875 19.5 5.6875H17.0625ZM8.9375 22.75H6.5C4.70762 22.75 3.25 21.2924 3.25 19.5V17.0625C3.25 15.2701 4.70762 13.8125 6.5 13.8125H8.9375C10.7299 13.8125 12.1875 15.2701 12.1875 17.0625V19.5C12.1875 21.2924 10.7299 22.75 8.9375 22.75ZM6.5 16.25C6.05231 16.25 5.6875 16.6148 5.6875 17.0625V19.5C5.6875 19.9477 6.05231 20.3125 6.5 20.3125H8.9375C9.38519 20.3125 9.75 19.9477 9.75 19.5V17.0625C9.75 16.6148 9.38519 16.25 8.9375 16.25H6.5ZM17.0625 15.8438V15.0312C17.0625 14.3585 16.5165 13.8125 15.8438 13.8125H15.0312C14.3585 13.8125 13.8125 14.3585 13.8125 15.0312V15.8438C13.8125 16.5165 14.3585 17.0625 15.0312 17.0625H15.8438C16.5165 17.0625 17.0625 16.5165 17.0625 15.8438ZM19.5 18.2812C19.5 17.6085 18.954 17.0625 18.2812 17.0625C17.6085 17.0625 17.0625 17.6085 17.0625 18.2812C17.0625 18.954 17.6085 19.5 18.2812 19.5C18.954 19.5 19.5 18.954 19.5 18.2812ZM17.0625 21.5312V20.7188C17.0625 20.046 16.5165 19.5 15.8438 19.5H15.0312C14.3585 19.5 13.8125 20.046 13.8125 20.7188V21.5312C13.8125 22.204 14.3585 22.75 15.0312 22.75H15.8438C16.5165 22.75 17.0625 22.204 17.0625 21.5312ZM22.75 15.8438V15.0312C22.75 14.3585 22.204 13.8125 21.5312 13.8125H20.7188C20.046 13.8125 19.5 14.3585 19.5 15.0312V15.8438C19.5 16.5165 20.046 17.0625 20.7188 17.0625H21.5312C22.204 17.0625 22.75 16.5165 22.75 15.8438Z" fill="#5F5F6E"/>
</svg>
