<svg width="21" height="21" viewBox="0 0 21 21" fill="none" xmlns="http://www.w3.org/2000/svg">
<path d="M9.82468 16.9019C9.84701 16.9242 9.87043 16.9454 9.89487 16.9654C9.90562 16.9742 9.91695 16.9818 9.92796 16.9901C9.94183 17.0005 9.95545 17.0113 9.96989 17.0209C9.98338 17.0299 9.99738 17.0377 10.0112 17.046C10.024 17.0537 10.0366 17.0618 10.0499 17.0689C10.0641 17.0765 10.0787 17.0829 10.0932 17.0897C10.1069 17.0962 10.1204 17.1031 10.1345 17.1089C10.1486 17.1147 10.1631 17.1195 10.1775 17.1246C10.1924 17.13 10.2073 17.1357 10.2226 17.1404C10.237 17.1447 10.2516 17.148 10.2662 17.1516C10.2818 17.1555 10.2973 17.1599 10.3132 17.1631C10.3299 17.1664 10.3468 17.1684 10.3637 17.1708C10.3777 17.1728 10.3914 17.1755 10.4056 17.1769C10.4369 17.1799 10.4684 17.1816 10.4998 17.1816C10.5312 17.1816 10.5627 17.18 10.594 17.1769C10.6083 17.1755 10.6222 17.1728 10.6364 17.1707C10.6531 17.1684 10.6698 17.1664 10.6863 17.1631C10.7025 17.1599 10.7183 17.1554 10.7343 17.1514C10.7485 17.1478 10.7628 17.1447 10.7769 17.1405C10.7925 17.1357 10.8076 17.1298 10.8229 17.1244C10.837 17.1193 10.8512 17.1147 10.8651 17.109C10.8794 17.103 10.8931 17.0961 10.907 17.0895C10.9213 17.0827 10.9358 17.0764 10.9498 17.0689C10.9631 17.0617 10.9757 17.0537 10.9886 17.0459C11.0025 17.0376 11.0165 17.0299 11.0299 17.0208C11.044 17.0114 11.0573 17.0008 11.0708 16.9907C11.0822 16.9822 11.0938 16.9743 11.1049 16.9653C11.1281 16.9462 11.1503 16.926 11.1717 16.9049C11.1727 16.9039 11.1738 16.9031 11.1748 16.9021L15.6295 12.4477C16.0022 12.0749 16.0022 11.4705 15.6295 11.0977C15.2567 10.725 14.6523 10.725 14.2795 11.0977L11.4543 13.9227V0.954546C11.4543 0.427382 11.027 0 10.4998 0C9.97263 0 9.54525 0.427382 9.54525 0.954546V13.9227L6.7203 11.0978C6.34752 10.725 5.7431 10.725 5.37038 11.0978C4.9976 11.4706 4.9976 12.0749 5.37038 12.4477L9.82468 16.9019Z" fill="#242424"/>
<path d="M20.0455 19.0909H0.954545C0.427382 19.0909 0 19.5183 0 20.0454C0 20.5726 0.427382 21 0.954545 21H20.0455C20.5726 21 21 20.5726 21 20.0454C21 19.5183 20.5726 19.0909 20.0455 19.0909Z" fill="#242424"/>
</svg>
