<svg width="20" height="20" viewBox="0 0 18 18" fill="none" xmlns="http://www.w3.org/2000/svg">
<path d="M15.375 7.6425H13.2075C11.43 7.6425 9.9825 6.195 9.9825 4.4175V2.25C9.9825 1.8375 9.645 1.5 9.2325 1.5H6.0525C3.7425 1.5 1.875 3 1.875 5.6775V12.3225C1.875 15 3.7425 16.5 6.0525 16.5H11.9475C14.2575 16.5 16.125 15 16.125 12.3225V8.3925C16.125 7.98 15.7875 7.6425 15.375 7.6425ZM9.36 11.775C8.97 13.0275 7.5975 13.7025 7.125 13.7025C6.645 13.7025 5.3025 13.05 4.89 11.775C4.62 10.9425 4.9275 9.855 5.88 9.5475C6.315 9.405 6.78 9.4875 7.1175 9.75C7.455 9.4875 7.92 9.405 8.3625 9.5475C9.3225 9.855 9.6225 10.9425 9.36 11.775Z" fill="#828292"/>
<path d="M13.0725 6.60749C13.785 6.61499 14.775 6.61499 15.6225 6.61499C16.05 6.61499 16.275 6.11249 15.975 5.81249C14.895 4.72499 12.96 2.76749 11.85 1.65749C11.5425 1.34999 11.01 1.55999 11.01 1.98749V4.60499C11.01 5.69999 11.94 6.60749 13.0725 6.60749Z" fill="#828292"/>
</svg>
