<svg width="26" height="26" viewBox="0 0 26 26" fill="none" xmlns="http://www.w3.org/2000/svg">
<path fill-rule="evenodd" clip-rule="evenodd" d="M4.28449 4.3995C3.25 5.82335 3.25 7.85446 3.25 11.9167V14.0833C3.25 18.1455 3.25 20.1767 4.28449 21.6005C4.61859 22.0604 5.02298 22.4647 5.48283 22.7988C6.90669 23.8333 8.93779 23.8333 13 23.8333C17.0622 23.8333 19.0933 23.8333 20.5172 22.7988C20.977 22.4647 21.3814 22.0604 21.7155 21.6005C22.75 20.1767 22.75 18.1455 22.75 14.0833V11.9167C22.75 7.85446 22.75 5.82335 21.7155 4.3995C21.3814 3.93965 20.977 3.53526 20.5172 3.20116C19.0933 2.16667 17.0622 2.16667 13 2.16667C8.93779 2.16667 6.90669 2.16667 5.48283 3.20116C5.02298 3.53526 4.61859 3.93965 4.28449 4.3995ZM8.66667 7.85417C8.21794 7.85417 7.85417 8.21794 7.85417 8.66667C7.85417 9.1154 8.21794 9.47917 8.66667 9.47917H17.3333C17.7821 9.47917 18.1458 9.1154 18.1458 8.66667C18.1458 8.21794 17.7821 7.85417 17.3333 7.85417H8.66667ZM8.66667 12.1875C8.21794 12.1875 7.85417 12.5513 7.85417 13C7.85417 13.4487 8.21794 13.8125 8.66667 13.8125H17.3333C17.7821 13.8125 18.1458 13.4487 18.1458 13C18.1458 12.5513 17.7821 12.1875 17.3333 12.1875H8.66667ZM8.66667 16.5208C8.21794 16.5208 7.85417 16.8846 7.85417 17.3333C7.85417 17.7821 8.21794 18.1458 8.66667 18.1458H11.9167C12.3654 18.1458 12.7292 17.7821 12.7292 17.3333C12.7292 16.8846 12.3654 16.5208 11.9167 16.5208H8.66667Z" fill="#5F5F6E"/>
</svg>
