<svg width="20" height="20" viewBox="0 0 20 20" fill="none" xmlns="http://www.w3.org/2000/svg">
<path fill-rule="evenodd" clip-rule="evenodd" d="M10 6.875C8.27411 6.875 6.875 8.27411 6.875 10C6.875 11.7259 8.27411 13.125 10 13.125C11.7259 13.125 13.125 11.7259 13.125 10C13.125 8.27411 11.7259 6.875 10 6.875ZM8.125 10C8.125 8.96447 8.96447 8.125 10 8.125C11.0355 8.125 11.875 8.96447 11.875 10C11.875 11.0355 11.0355 11.875 10 11.875C8.96447 11.875 8.125 11.0355 8.125 10Z" fill="#5F5F6E"/>
<path fill-rule="evenodd" clip-rule="evenodd" d="M10 2.70833C8.21587 2.70833 6.60271 3.59083 5.29311 4.6631C3.97636 5.74122 2.89968 7.06554 2.17618 8.07335L2.11651 8.15632C1.68096 8.76153 1.32243 9.25971 1.32243 10C1.32243 10.7403 1.68096 11.2385 2.11651 11.8437L2.17618 11.9267C2.89968 12.9345 3.97636 14.2588 5.29311 15.3369C6.60271 16.4092 8.21587 17.2917 10 17.2917C11.7841 17.2917 13.3973 16.4092 14.7069 15.3369C16.0236 14.2588 17.1003 12.9345 17.8238 11.9267L17.8835 11.8437C18.319 11.2385 18.6776 10.7403 18.6776 10C18.6776 9.25971 18.319 8.76153 17.8835 8.15633L17.8238 8.07334C17.1003 7.06554 16.0236 5.74122 14.7069 4.6631C13.3973 3.59083 11.7841 2.70833 10 2.70833ZM3.19161 8.80232C3.88266 7.83971 4.88624 6.61178 6.085 5.63026C7.29092 4.64288 8.62853 3.95833 10 3.95833C11.3715 3.95833 12.7091 4.64288 13.915 5.63026C15.1138 6.61178 16.1173 7.83971 16.8084 8.80232C17.3284 9.52661 17.4276 9.70123 17.4276 10C17.4276 10.2988 17.3284 10.4734 16.8084 11.1977C16.1173 12.1603 15.1138 13.3882 13.915 14.3697C12.7091 15.3571 11.3715 16.0417 10 16.0417C8.62853 16.0417 7.29092 15.3571 6.085 14.3697C4.88624 13.3882 3.88266 12.1603 3.19161 11.1977C2.67164 10.4734 2.57243 10.2988 2.57243 10C2.57243 9.70123 2.67164 9.52661 3.19161 8.80232Z" fill="#5F5F6E"/>
</svg>
