<svg width="31" height="19" viewBox="0 0 31 19" fill="none" xmlns="http://www.w3.org/2000/svg">
<path fill-rule="evenodd" clip-rule="evenodd" d="M23.1301 2.56668H8.17289C7.67499 2.56668 7.20616 2.79106 6.89657 3.17323L2.59359 8.48506C2.11325 9.07802 2.11325 9.922 2.59359 10.515L6.89657 15.8268C7.20616 16.209 7.67499 16.4333 8.17289 16.4333H23.1301C24.0413 16.4333 24.7667 15.7001 24.7667 14.8118V4.18818C24.7667 3.29997 24.0413 2.56668 23.1301 2.56668ZM8.17289 0.833344C7.1538 0.833344 6.18944 1.29245 5.54971 2.08217L1.24673 7.394C0.25109 8.62307 0.251091 10.3769 1.24673 11.606L5.54971 16.9178C6.18945 17.7076 7.1538 18.1667 8.17289 18.1667H23.1301C24.9912 18.1667 26.5 16.6647 26.5 14.8118V4.18818C26.5 2.33536 24.9912 0.833344 23.1301 0.833344H8.17289Z" fill="#5B5B67"/>
<path d="M13.1916 7.32702C12.9708 7.11049 12.9708 6.75942 13.1916 6.54289C13.4123 6.32636 13.7702 6.32636 13.991 6.54289L19.0538 11.509C19.2746 11.7256 19.2746 12.0766 19.0538 12.2932C18.8331 12.5097 18.4752 12.5097 18.2544 12.2932L13.1916 7.32702Z" fill="#5B5B67"/>
<path d="M13.9453 12.4572C13.7245 12.6737 13.3666 12.6737 13.1459 12.4572C12.9251 12.2406 12.9251 11.8896 13.1459 11.673L18.2087 6.70688C18.4294 6.49035 18.7874 6.49035 19.0081 6.70688C19.2288 6.92341 19.2288 7.27448 19.0081 7.49101L13.9453 12.4572Z" fill="#5B5B67"/>
<path fill-rule="evenodd" clip-rule="evenodd" d="M13.1916 7.32702C12.9708 7.11049 12.9708 6.75942 13.1916 6.54289C13.4123 6.32636 13.7702 6.32636 13.991 6.54289L16.1834 8.69347L18.2087 6.70688C18.4294 6.49035 18.7874 6.49035 19.0081 6.70688C19.2288 6.92341 19.2288 7.27448 19.0081 7.49101L16.9828 9.4776L19.0538 11.509C19.2746 11.7256 19.2746 12.0766 19.0538 12.2932C18.8331 12.5097 18.4752 12.5097 18.2544 12.2932L16.1834 10.2617L13.9453 12.4572C13.7245 12.6737 13.3666 12.6737 13.1459 12.4572C12.9251 12.2406 12.9251 11.8896 13.1459 11.673L15.384 9.4776L13.1916 7.32702ZM14.8883 9.4776L12.9485 7.57484C12.589 7.22222 12.589 6.64769 12.9485 6.29507C13.3043 5.94612 13.8783 5.94612 14.2341 6.29507L16.1834 8.20721L17.9656 6.45906C18.3214 6.11011 18.8954 6.11011 19.2512 6.45906C19.6107 6.81168 19.6107 7.38621 19.2512 7.73883L17.4786 9.4776L19.2969 11.2612C19.6564 11.6138 19.6564 12.1884 19.2969 12.541C18.9412 12.8899 18.3671 12.8899 18.0113 12.541L16.1834 10.748L14.1884 12.705C13.8326 13.0539 13.2585 13.0539 12.9028 12.705C12.5433 12.3524 12.5433 11.7778 12.9028 11.4252L14.8883 9.4776Z" fill="#5B5B67"/>
</svg>
