<svg width="20" height="20" viewBox="0 0 20 20" fill="none" xmlns="http://www.w3.org/2000/svg">
<path fill-rule="evenodd" clip-rule="evenodd" d="M9.16667 0.208333C4.67935 0.208333 1.04167 3.84602 1.04167 8.33333C1.04167 12.8206 4.67935 16.4583 9.16667 16.4583C13.654 16.4583 17.2917 12.8206 17.2917 8.33333C17.2917 3.84602 13.654 0.208333 9.16667 0.208333ZM2.29167 8.33333C2.29167 4.53638 5.36971 1.45833 9.16667 1.45833C12.9636 1.45833 16.0417 4.53638 16.0417 8.33333C16.0417 12.1303 12.9636 15.2083 9.16667 15.2083C5.36971 15.2083 2.29167 12.1303 2.29167 8.33333Z" fill="#7E8092"/>
<path d="M16.2753 14.5581C16.0313 14.3141 15.6355 14.3141 15.3915 14.5581C15.1474 14.8022 15.1474 15.1979 15.3914 15.442L18.7247 18.7753C18.9688 19.0194 19.3645 19.0194 19.6086 18.7753C19.8527 18.5312 19.8527 18.1355 19.6086 17.8914L16.2753 14.5581Z" fill="#7E8092"/>
</svg>
