<svg width="14" height="14" viewBox="0 0 14 14" fill="none" xmlns="http://www.w3.org/2000/svg">
<path fill-rule="evenodd" clip-rule="evenodd" d="M7 2.22727C4.3641 2.22727 2.22727 4.3641 2.22727 7C2.22727 9.6359 4.3641 11.7727 7 11.7727C9.63591 11.7727 11.7727 9.6359 11.7727 7C11.7727 4.3641 9.63591 2.22727 7 2.22727ZM1.16667 7C1.16667 3.77834 3.77834 1.16667 7 1.16667C10.2217 1.16667 12.8333 3.77834 12.8333 7C12.8333 10.2217 10.2217 12.8333 7 12.8333C3.77834 12.8333 1.16667 10.2217 1.16667 7Z" fill="#323339"/>
<path fill-rule="evenodd" clip-rule="evenodd" d="M7 6.46969C7.29288 6.46969 7.5303 6.70712 7.5303 7V9.12121C7.5303 9.41409 7.29288 9.65151 7 9.65151C6.70712 9.65151 6.4697 9.41409 6.4697 9.12121V7C6.4697 6.70712 6.70712 6.46969 7 6.46969Z" fill="#323339"/>
<path fill-rule="evenodd" clip-rule="evenodd" d="M6.4697 4.87879C6.4697 4.58591 6.70712 4.34848 7 4.34848H7.00519C7.29807 4.34848 7.5355 4.58591 7.5355 4.87879C7.5355 5.17166 7.29807 5.40909 7.00519 5.40909H7C6.70712 5.40909 6.4697 5.17166 6.4697 4.87879Z" fill="#323339"/>
</svg>
