<svg width="24" height="24" viewBox="0 0 24 24" fill="none" xmlns="http://www.w3.org/2000/svg">
<path d="M17.6826 16.4855C17.6826 16.5423 17.7147 16.5942 17.7655 16.6196L19.3723 17.423C19.7094 17.5916 19.8461 18.0016 19.6775 18.3387C19.5089 18.6759 19.099 18.8126 18.7618 18.644L16.6948 17.6105C16.4636 17.4949 16.3175 17.2585 16.3175 17V14.6746C16.3175 14.2977 16.6231 13.9921 17.0001 13.9921C17.377 13.9921 17.6826 14.2977 17.6826 14.6746V16.4855Z" fill="#717384"/>
<path fill-rule="evenodd" clip-rule="evenodd" d="M11.1501 17C11.1501 13.7691 13.7692 11.15 17.0001 11.15C20.231 11.15 22.8501 13.7691 22.8501 17C22.8501 20.2309 20.231 22.85 17.0001 22.85C13.7692 22.85 11.1501 20.2309 11.1501 17ZM17.0001 12.5151C14.5231 12.5151 12.5152 14.523 12.5152 17C12.5152 19.477 14.5231 21.4849 17.0001 21.4849C19.4771 21.4849 21.485 19.477 21.485 17C21.485 14.523 19.4771 12.5151 17.0001 12.5151Z" fill="#717384"/>
<path d="M16.4637 1.37374C15.3216 1.25 13.882 1.25 12.0455 1.25001H11.9549C10.1184 1.25 8.67881 1.25 7.53667 1.37374C6.37114 1.50002 5.42676 1.76234 4.62043 2.34816C4.13229 2.70282 3.70301 3.1321 3.34835 3.62025C2.76252 4.42657 2.5002 5.37095 2.37393 6.53649C2.25018 7.67862 2.25019 9.11823 2.2502 10.9548V13.0453C2.25019 14.8818 2.25018 16.3214 2.37393 17.4635C2.5002 18.6291 2.76252 19.5735 3.34835 20.3798C3.70301 20.8679 4.13229 21.2972 4.62043 21.6519C5.42676 22.2377 6.37114 22.5 7.53667 22.6263C8.67879 22.75 10.1184 22.75 11.9549 22.75H12.0473C12.3796 22.75 12.699 22.75 13.0059 22.7493C12.4086 22.3335 11.8791 21.8271 11.4375 21.2499C9.83455 21.2486 8.64283 21.2374 7.69824 21.135C6.66033 21.0226 6.01012 20.8074 5.50211 20.4383C5.14131 20.1762 4.82402 19.8589 4.56188 19.4981C4.19279 18.9901 3.97765 18.3399 3.8652 17.302C3.75123 16.25 3.7502 14.8916 3.7502 13V11C3.7502 9.10844 3.75123 7.75 3.8652 6.69806C3.97765 5.66015 4.19279 5.00993 4.56188 4.50192C4.82402 4.14112 5.14131 3.82383 5.50211 3.56169C6.01012 3.1926 6.66033 2.97746 7.69824 2.86501C8.75019 2.75104 10.1086 2.75001 12.0002 2.75001C13.8918 2.75001 15.2502 2.75104 16.3022 2.86501C17.3401 2.97746 17.9903 3.1926 18.4983 3.56169C18.8591 3.82383 19.1764 4.14112 19.4385 4.50192C19.8076 5.00993 20.0227 5.66015 20.1352 6.69806C20.2451 7.71229 20.25 9.01143 20.2502 10.7986C20.7968 11.0857 21.3008 11.4428 21.7502 11.8582V10.9547C21.7502 9.11825 21.7502 7.6786 21.6265 6.53649C21.5002 5.37095 21.2379 4.42657 20.652 3.62025C20.2974 3.1321 19.8681 2.70282 19.38 2.34816C18.5736 1.76234 17.6293 1.50002 16.4637 1.37374Z" fill="#717384"/>
<path d="M7.2502 8.00001C7.2502 7.5858 7.58599 7.25001 8.0002 7.25001H13.2502C13.6644 7.25001 14.0002 7.5858 14.0002 8.00001C14.0002 8.41423 13.6644 8.75001 13.2502 8.75001H8.0002C7.58599 8.75001 7.2502 8.41423 7.2502 8.00001Z" fill="#717384"/>
</svg>
