<svg width="24" height="24" viewBox="0 0 24 24" fill="none" xmlns="http://www.w3.org/2000/svg">
<path d="M15.6363 12.1136C15.2221 12.1136 14.8863 12.4494 14.8863 12.8636C14.8863 13.2779 15.2221 13.6136 15.6363 13.6136H18.3636C18.7778 13.6136 19.1136 13.2779 19.1136 12.8636C19.1136 12.4494 18.7778 12.1136 18.3636 12.1136H15.6363Z" fill="#717384"/>
<path fill-rule="evenodd" clip-rule="evenodd" d="M19.6474 3.37746C19.7248 3.82142 19.7436 4.34902 19.7488 4.95264C19.8355 4.99788 19.9207 5.04605 20.0043 5.09732C20.778 5.57144 21.4285 6.22194 21.9026 6.99563C22.4247 7.84749 22.6145 8.83476 22.6929 10.0896C22.75 11.0025 22.75 12.1128 22.75 13.4765V13.5048C22.75 14.2868 22.75 14.9834 22.7397 15.6034C22.7077 17.5313 22.5828 18.8944 21.9026 20.0044C21.4285 20.7781 20.778 21.4286 20.0043 21.9027C19.2655 22.3554 18.4274 22.5572 17.4039 22.6545C16.3997 22.75 15.1427 22.75 13.5394 22.75H10.4606C8.85724 22.75 7.60024 22.75 6.59607 22.6545C5.57252 22.5572 4.73441 22.3554 3.99559 21.9027C3.2219 21.4286 2.5714 20.7781 2.09728 20.0044C1.64453 19.2655 1.44275 18.4274 1.34543 17.4039C1.24995 16.3997 1.24995 15.1427 1.24996 13.5394L1.25004 13.0136C1.23686 12.5195 1.24091 11.967 1.24527 11.3713C1.24757 11.0574 1.24996 10.7314 1.24996 10.3956L1.24996 10.3523C1.24995 8.64003 1.24994 7.29621 1.36078 6.22967C1.47383 5.14187 1.70891 4.25461 2.23908 3.49385C2.5594 3.03421 2.94802 2.62872 3.39133 2.29293C4.12965 1.7337 4.99362 1.48509 6.04724 1.36608C7.07517 1.24998 8.36833 1.24999 10.0064 1.25L15.4745 1.24999C16.273 1.24996 16.9499 1.24993 17.4895 1.32556C18.0658 1.40635 18.5948 1.58606 19.018 2.02727C19.3853 2.41025 19.5594 2.87227 19.6474 3.37746ZM15.4217 2.75C16.2874 2.75 16.8581 2.75173 17.2813 2.81104C17.6796 2.86687 17.8345 2.96038 17.9355 3.06562C18.0288 3.16295 18.113 3.30988 18.1697 3.63506C18.2076 3.85248 18.2283 4.11823 18.2392 4.45819C17.8265 4.38264 17.3811 4.33609 16.8958 4.30615C15.9858 4.24999 14.8799 4.24999 13.5231 4.25H10.4606C8.85721 4.24999 7.60025 4.24999 6.59607 4.34546C5.57252 4.44278 4.73441 4.64457 3.99559 5.09732C3.59731 5.34138 3.23167 5.63219 2.90594 5.96248C3.0157 5.23515 3.19545 4.74504 3.46972 4.35148C3.7013 4.01918 3.98071 3.72823 4.29702 3.48864C4.73475 3.15709 5.2976 2.9603 6.2156 2.85661C7.14955 2.75111 8.35802 2.75 10.053 2.75H15.4217ZM4.77934 6.37628C5.24286 6.09223 5.82429 5.92561 6.73805 5.83873C7.66296 5.75079 8.84872 5.75 10.5 5.75H13.5C14.8846 5.75 15.9449 5.75032 16.8035 5.8033C17.6612 5.85623 18.2609 5.95941 18.7337 6.13895C18.9107 6.20619 19.071 6.2846 19.2206 6.37628C19.7924 6.72671 20.2732 7.20752 20.6237 7.77938C20.8703 8.18182 21.0274 8.67099 21.1216 9.38638H15.6363C13.7159 9.38638 12.159 10.9432 12.159 12.8636C12.159 14.7841 13.7159 16.3409 15.6363 16.3409H21.2193C21.1615 17.8012 21.0022 18.603 20.6237 19.2206C20.2732 19.7925 19.7924 20.2733 19.2206 20.6237C18.7571 20.9078 18.1756 21.0744 17.2619 21.1613C16.337 21.2492 15.1512 21.25 13.5 21.25H10.5C8.84872 21.25 7.66296 21.2492 6.73805 21.1613C5.82429 21.0744 5.24286 20.9078 4.77934 20.6237C4.20748 20.2733 3.72667 19.7925 3.37624 19.2206C3.09219 18.7571 2.92557 18.1757 2.83869 17.2619C2.75075 16.337 2.74996 15.1512 2.74996 13.5C2.74996 11.8488 2.75075 10.663 2.83869 9.73808C2.92557 8.82433 3.09219 8.2429 3.37624 7.77938C3.72667 7.20752 4.20748 6.72671 4.77934 6.37628ZM13.659 12.8636C13.659 11.7716 14.5443 10.8864 15.6363 10.8864H21.2275C21.2498 11.6103 21.25 12.4644 21.25 13.5C21.25 13.9839 21.25 14.429 21.2476 14.8409H15.6363C14.5443 14.8409 13.659 13.9557 13.659 12.8636Z" fill="#717384"/>
</svg>
