<svg width="24" height="24" viewBox="0 0 24 24" fill="none" xmlns="http://www.w3.org/2000/svg">
<path d="M6.10629 20.8C5.19893 20.8 4.42475 20.5087 3.85869 19.9426C3.05122 19.135 2.80148 17.9029 3.15944 16.471L5.2239 8.20426C5.58185 6.77235 6.98036 5.38207 8.40384 5.02409L16.67 2.95948C18.1018 2.60151 19.3338 2.85126 20.1413 3.65879C20.9488 4.46631 21.1985 5.69842 20.8406 7.13033L18.7761 15.3971C18.4181 16.829 17.0196 18.2193 15.5962 18.5773L7.32998 20.6419C6.90544 20.7418 6.49754 20.8 6.10629 20.8ZM16.9863 4.15829L8.72017 6.23122C7.74621 6.47265 6.689 7.52993 6.43927 8.50396L4.37481 16.7707C4.12507 17.7614 4.25826 18.5689 4.74108 19.0601C5.2239 19.543 6.03969 19.6762 7.0303 19.4264L15.2965 17.3618C16.2704 17.1204 17.3276 16.0548 17.5691 15.0891L19.6335 6.8223C19.8833 5.83162 19.7501 5.02409 19.2672 4.53291C18.7844 4.04174 17.977 3.91686 16.9863 4.15829Z" fill="#717384"/>
<path d="M6.10629 20.8C5.19893 20.8 4.42475 20.5087 3.85869 19.9426C3.05122 19.135 2.80148 17.9029 3.15944 16.471L5.2239 8.20426C5.58185 6.77235 6.98036 5.38207 8.40384 5.02409L16.67 2.95948C18.1018 2.60151 19.3338 2.85126 20.1413 3.65879C20.9488 4.46631 21.1985 5.69842 20.8406 7.13033L18.7761 15.3971C18.4181 16.829 17.0196 18.2193 15.5962 18.5773L7.32998 20.6419C6.90544 20.7418 6.49754 20.8 6.10629 20.8ZM16.9863 4.15829L8.72017 6.23122C7.74621 6.47265 6.689 7.52993 6.43927 8.50396L4.37481 16.7707C4.12507 17.7614 4.25826 18.5689 4.74108 19.0601C5.2239 19.543 6.03969 19.6762 7.0303 19.4264L15.2965 17.3618C16.2704 17.1204 17.3276 16.0548 17.5691 15.0891L19.6335 6.8223C19.8833 5.83162 19.7501 5.02409 19.2672 4.53291C18.7844 4.04174 17.977 3.91686 16.9863 4.15829Z" fill="#717384"/>
<path fill-rule="evenodd" clip-rule="evenodd" d="M7.32999 20.6419C6.90544 20.7418 6.49754 20.8 6.10629 20.8C5.19893 20.8 4.42475 20.5087 3.85869 19.9426C3.05122 19.135 2.80149 17.9029 3.15944 16.471L5.2239 8.20426C5.58185 6.77235 6.98036 5.38207 8.40384 5.02409L16.67 2.95948C18.1018 2.60151 19.3338 2.85126 20.1413 3.65879C20.9488 4.46631 21.1985 5.69842 20.8406 7.13033L18.7761 15.3971C18.4182 16.829 17.0196 18.2193 15.5962 18.5773L7.32999 20.6419ZM20.9861 7.1667L18.9216 15.4334C18.7347 16.1811 18.279 16.9098 17.6917 17.4961C17.1044 18.0823 16.3759 18.5358 15.6327 18.7227L7.36435 20.7879C6.93196 20.8896 6.51217 20.95 6.10629 20.95C5.16573 20.95 4.35115 20.6472 3.75262 20.0486C2.89708 19.193 2.6474 17.9008 3.01391 16.4347C3.01391 16.4347 3.0139 16.4347 3.01391 16.4347L5.07837 8.16791C5.26527 7.42025 5.72101 6.69158 6.30832 6.10529C6.89563 5.51901 7.6241 5.06551 8.36726 4.87862L16.6336 2.81396C16.6336 2.81396 16.6336 2.81396 16.6336 2.81396C18.0997 2.44743 19.3918 2.69712 20.2474 3.55272C21.1029 4.40832 21.3526 5.70054 20.9861 7.1667C20.9861 7.16672 20.9861 7.16669 20.9861 7.1667ZM15.2965 17.3618C16.2704 17.1204 17.3276 16.0548 17.5691 15.0891L19.6335 6.8223C19.8833 5.83162 19.7501 5.02409 19.2672 4.53291C18.7844 4.04174 17.977 3.91686 16.9863 4.15829L8.72017 6.23122C7.74621 6.47265 6.689 7.52993 6.43927 8.50396L4.37481 16.7707C4.12507 17.7614 4.25826 18.5689 4.74108 19.0601C5.2239 19.543 6.0397 19.6762 7.03031 19.4264L15.2965 17.3618ZM4.84763 18.9545C5.27711 19.3836 6.0278 19.5245 6.99364 19.281L15.2601 17.2163C15.7129 17.104 16.1979 16.7955 16.6013 16.3911C17.0046 15.9867 17.3113 15.5018 17.4235 15.0527C17.4235 15.0527 17.4235 15.0527 17.4235 15.0527L19.488 6.78596C19.7314 5.82052 19.5911 5.07637 19.1603 4.63807C18.7315 4.20183 17.9902 4.06813 17.0224 4.3039C17.0222 4.30394 17.0225 4.30386 17.0224 4.3039L8.75665 6.37672C8.30356 6.48903 7.81834 6.79576 7.41407 7.19906C7.00999 7.60216 6.70112 8.08713 6.58469 8.54074C6.58465 8.54089 6.58473 8.54058 6.58469 8.54074L4.52034 16.8071C4.27705 17.7722 4.41712 18.5162 4.84763 18.9545Z" fill="#717384"/>
<path d="M12 15.8C9.79765 15.8 8.00001 14.0024 8.00001 11.8C8.00001 9.59769 9.79765 7.80004 12 7.80004C14.2024 7.80004 16 9.59769 16 11.8C16 14.0024 14.2024 15.8 12 15.8ZM12 9.21181C10.5694 9.21181 9.41177 10.3695 9.41177 11.8C9.41177 13.2306 10.5694 14.3883 12 14.3883C13.4306 14.3883 14.5882 13.2306 14.5882 11.8C14.5882 10.3695 13.4306 9.21181 12 9.21181Z" fill="#717384"/>
</svg>
