<svg width="22" height="22" viewBox="0 0 22 22" fill="none" xmlns="http://www.w3.org/2000/svg">
<path d="M6.41666 9.85417H4.58333C2.36499 9.85417 1.14583 8.635 1.14583 6.41667V4.58333C1.14583 2.365 2.36499 1.14583 4.58333 1.14583H6.41666C8.635 1.14583 9.85416 2.365 9.85416 4.58333V6.41667C9.85416 8.635 8.635 9.85417 6.41666 9.85417ZM4.58333 2.52083C3.135 2.52083 2.52083 3.135 2.52083 4.58333V6.41667C2.52083 7.865 3.135 8.47917 4.58333 8.47917H6.41666C7.865 8.47917 8.47916 7.865 8.47916 6.41667V4.58333C8.47916 3.135 7.865 2.52083 6.41666 2.52083H4.58333Z" fill="#7B7B7B"/>
<path d="M17.4167 9.85417H15.5833C13.365 9.85417 12.1458 8.635 12.1458 6.41667V4.58333C12.1458 2.365 13.365 1.14583 15.5833 1.14583H17.4167C19.635 1.14583 20.8542 2.365 20.8542 4.58333V6.41667C20.8542 8.635 19.635 9.85417 17.4167 9.85417ZM15.5833 2.52083C14.135 2.52083 13.5208 3.135 13.5208 4.58333V6.41667C13.5208 7.865 14.135 8.47917 15.5833 8.47917H17.4167C18.865 8.47917 19.4792 7.865 19.4792 6.41667V4.58333C19.4792 3.135 18.865 2.52083 17.4167 2.52083H15.5833Z" fill="#7B7B7B"/>
<path d="M17.4167 20.8542H15.5833C13.365 20.8542 12.1458 19.635 12.1458 17.4167V15.5833C12.1458 13.365 13.365 12.1458 15.5833 12.1458H17.4167C19.635 12.1458 20.8542 13.365 20.8542 15.5833V17.4167C20.8542 19.635 19.635 20.8542 17.4167 20.8542ZM15.5833 13.5208C14.135 13.5208 13.5208 14.135 13.5208 15.5833V17.4167C13.5208 18.865 14.135 19.4792 15.5833 19.4792H17.4167C18.865 19.4792 19.4792 18.865 19.4792 17.4167V15.5833C19.4792 14.135 18.865 13.5208 17.4167 13.5208H15.5833Z" fill="#7B7B7B"/>
<path d="M6.41666 20.8542H4.58333C2.36499 20.8542 1.14583 19.635 1.14583 17.4167V15.5833C1.14583 13.365 2.36499 12.1458 4.58333 12.1458H6.41666C8.635 12.1458 9.85416 13.365 9.85416 15.5833V17.4167C9.85416 19.635 8.635 20.8542 6.41666 20.8542ZM4.58333 13.5208C3.135 13.5208 2.52083 14.135 2.52083 15.5833V17.4167C2.52083 18.865 3.135 19.4792 4.58333 19.4792H6.41666C7.865 19.4792 8.47916 18.865 8.47916 17.4167V15.5833C8.47916 14.135 7.865 13.5208 6.41666 13.5208H4.58333Z" fill="#7B7B7B"/>
</svg>
