<svg width="22" height="22" viewBox="0 0 22 22" fill="none" xmlns="http://www.w3.org/2000/svg">
<path d="M19.25 18.5625H7.79167C7.41584 18.5625 7.10417 18.2508 7.10417 17.875C7.10417 17.4992 7.41584 17.1875 7.79167 17.1875H19.25C19.6258 17.1875 19.9375 17.4992 19.9375 17.875C19.9375 18.2508 19.6258 18.5625 19.25 18.5625Z" fill="#7B7B7B"/>
<path d="M19.25 12.1458H7.79167C7.41584 12.1458 7.10417 11.8342 7.10417 11.4583C7.10417 11.0825 7.41584 10.7708 7.79167 10.7708H19.25C19.6258 10.7708 19.9375 11.0825 19.9375 11.4583C19.9375 11.8342 19.6258 12.1458 19.25 12.1458Z" fill="#7B7B7B"/>
<path d="M19.25 5.72917H7.79167C7.41583 5.72917 7.10417 5.4175 7.10417 5.04167C7.10417 4.66583 7.41583 4.35417 7.79167 4.35417L19.25 4.35417C19.6258 4.35417 19.9375 4.66583 19.9375 5.04167C19.9375 5.4175 19.6258 5.72917 19.25 5.72917Z" fill="#7B7B7B"/>
<ellipse cx="3.20833" cy="5.04167" rx="1.375" ry="1.375" fill="#7B7B7B"/>
<circle cx="3.20833" cy="11.4583" r="1.375" fill="#7B7B7B"/>
<circle cx="3.20833" cy="17.875" r="1.375" fill="#7B7B7B"/>
</svg>
