<svg width="18" height="18" viewBox="0 0 18 18" fill="none" xmlns="http://www.w3.org/2000/svg">
<path d="M15.7275 0.75H13.5225C12.57 0.75 12 1.32 12 2.2725V4.4775C12 5.43 12.57 6 13.5225 6H15.7275C16.68 6 17.25 5.43 17.25 4.4775V2.2725C17.25 1.32 16.68 0.75 15.7275 0.75ZM15.8925 3.2325C15.8025 3.3225 15.6825 3.3675 15.5625 3.3675C15.4425 3.3675 15.3225 3.3225 15.2325 3.2325L15.0975 3.0975V4.7775C15.0975 5.04 14.8875 5.25 14.625 5.25C14.3625 5.25 14.1525 5.04 14.1525 4.7775V3.0975L14.0175 3.2325C13.8375 3.4125 13.5375 3.4125 13.3575 3.2325C13.1775 3.0525 13.1775 2.7525 13.3575 2.5725L14.295 1.635C14.3325 1.5975 14.385 1.5675 14.4375 1.545C14.4525 1.5375 14.4675 1.5375 14.4825 1.53C14.52 1.515 14.5575 1.5075 14.6025 1.5075C14.6175 1.5075 14.6325 1.5075 14.6475 1.5075C14.7 1.5075 14.745 1.515 14.7975 1.5375C14.805 1.5375 14.805 1.5375 14.8125 1.5375C14.865 1.56 14.91 1.59 14.9475 1.6275C14.955 1.635 14.955 1.635 14.9625 1.635L15.9 2.5725C16.08 2.7525 16.08 3.0525 15.8925 3.2325Z" fill="white"/>
<path d="M6.74997 7.785C7.73579 7.785 8.53497 6.98582 8.53497 6C8.53497 5.01417 7.73579 4.215 6.74997 4.215C5.76414 4.215 4.96497 5.01417 4.96497 6C4.96497 6.98582 5.76414 7.785 6.74997 7.785Z" fill="white"/>
<path d="M15.7275 6H15.375V9.4575L15.2775 9.375C14.6925 8.8725 13.7475 8.8725 13.1625 9.375L10.0425 12.0525C9.4575 12.555 8.5125 12.555 7.9275 12.0525L7.6725 11.8425C7.14 11.3775 6.2925 11.3325 5.6925 11.7375L2.8875 13.62C2.7225 13.2 2.625 12.7125 2.625 12.1425V5.8575C2.625 3.7425 3.7425 2.625 5.8575 2.625H12V2.2725C12 1.9725 12.0525 1.7175 12.1725 1.5H5.8575C3.1275 1.5 1.5 3.1275 1.5 5.8575V12.1425C1.5 12.96 1.6425 13.6725 1.92 14.2725C2.565 15.6975 3.945 16.5 5.8575 16.5H12.1425C14.8725 16.5 16.5 14.8725 16.5 12.1425V5.8275C16.2825 5.9475 16.0275 6 15.7275 6Z" fill="white"/>
</svg>
