<svg width="22" height="22" viewBox="0 0 22 22" fill="none" xmlns="http://www.w3.org/2000/svg">
<path d="M13.75 18.9475C13.5758 18.9475 13.4016 18.8833 13.2641 18.7458L7.28747 12.7692C6.3158 11.7975 6.3158 10.2025 7.28747 9.23084L13.2641 3.25417C13.53 2.98834 13.97 2.98834 14.2358 3.25417C14.5016 3.52 14.5016 3.96 14.2358 4.22584L8.25913 10.2025C7.81913 10.6425 7.81913 11.3575 8.25913 11.7975L14.2358 17.7742C14.5016 18.04 14.5016 18.48 14.2358 18.7458C14.0983 18.8742 13.9241 18.9475 13.75 18.9475Z" fill="white"/>
<path fill-rule="evenodd" clip-rule="evenodd" d="M14.4862 19.014L14.4861 19.0139C14.2883 19.1985 14.027 19.3142 13.7501 19.3142C13.4839 19.3142 13.2148 19.215 13.0049 19.0051L7.02828 13.0284C5.91342 11.9136 5.91342 10.0864 7.02828 8.97156L13.0049 2.99489C13.414 2.58587 14.0861 2.58587 14.4952 2.99489C14.9042 3.40392 14.9042 4.07608 14.4952 4.48511L8.51849 10.4618C8.22169 10.7586 8.22169 11.2414 8.51849 11.5382L14.4952 17.5149C14.9042 17.9239 14.9042 18.5961 14.4952 19.0051L14.4862 19.014ZM13.2642 18.7458C13.4017 18.8833 13.5759 18.9475 13.7501 18.9475C13.9242 18.9475 14.0984 18.8742 14.2359 18.7458C14.5017 18.48 14.5017 18.04 14.2359 17.7742L8.25922 11.7975C7.81922 11.3575 7.81922 10.6425 8.25922 10.2025L14.2359 4.22583C14.5017 3.96 14.5017 3.52 14.2359 3.25417C13.9701 2.98833 13.5301 2.98833 13.2642 3.25417L7.28756 9.23083C6.31589 10.2025 6.31589 11.7975 7.28756 12.7692L13.2642 18.7458Z" fill="white"/>
</svg>
